<svg width="300" height="150" viewBox="0 0 300 150" fill="none" xmlns="http://www.w3.org/2000/svg">
<g clip-path="url(#clip0_3758_3089)">
<path d="M186.004 32.1675C185.885 32.1675 185.784 32.0742 185.776 31.9542C185.768 31.8286 185.864 31.7201 185.989 31.7125C187.246 31.6363 188.443 31.3203 189.549 30.7759C189.663 30.7226 189.798 30.7664 189.854 30.8806C189.909 30.9929 189.863 31.13 189.749 31.1852C188.588 31.7563 187.331 32.0875 186.016 32.1675C186.014 32.1675 186.008 32.1675 186.004 32.1675ZM182.262 31.6935C182.239 31.6935 182.216 31.6896 182.193 31.6839C181.796 31.5583 181.4 31.4079 181.021 31.2385C180.221 30.8844 179.469 30.4237 178.79 29.8679C178.693 29.7879 178.677 29.6451 178.757 29.5481C178.837 29.451 178.98 29.4338 179.077 29.5157C179.726 30.0449 180.442 30.4846 181.205 30.8216C181.571 30.9834 181.95 31.1281 182.332 31.248C182.452 31.2861 182.519 31.4136 182.481 31.5335C182.448 31.6325 182.359 31.6935 182.262 31.6935ZM192.62 28.8875C192.568 28.8875 192.515 28.8704 192.473 28.8342C192.376 28.7543 192.364 28.6096 192.446 28.5125C193.236 27.574 193.826 26.487 194.2 25.2801C194.236 25.1602 194.365 25.0917 194.485 25.1297C194.605 25.1678 194.674 25.2954 194.635 25.4153C194.245 26.6812 193.625 27.8215 192.795 28.8076C192.749 28.8609 192.684 28.8875 192.62 28.8875ZM176.542 27.0048C176.46 27.0048 176.382 26.961 176.34 26.883C175.732 25.7313 175.371 24.4844 175.268 23.1747C175.258 23.0491 175.352 22.9406 175.477 22.9292C175.599 22.9101 175.712 23.0129 175.723 23.1386C175.822 24.3854 176.165 25.5752 176.743 26.6717C176.802 26.7821 176.759 26.9211 176.648 26.9801C176.614 26.9972 176.578 27.0048 176.542 27.0048ZM194.877 21.827C194.755 21.827 194.655 21.7318 194.649 21.6099C194.599 20.4259 194.375 19.1942 193.983 17.9455C193.944 17.8255 194.011 17.698 194.131 17.6599C194.255 17.6199 194.378 17.6904 194.417 17.8084C194.82 19.0953 195.052 20.3669 195.104 21.589C195.109 21.7146 195.012 21.8212 194.885 21.827C194.883 21.827 194.879 21.827 194.877 21.827ZM175.911 19.634C175.89 19.634 175.868 19.6302 175.847 19.6245C175.727 19.5883 175.656 19.4627 175.692 19.3408C176.039 18.1701 176.583 16.9956 177.312 15.8534C177.381 15.7468 177.522 15.7163 177.627 15.7829C177.733 15.8496 177.764 15.9904 177.697 16.097C176.991 17.205 176.463 18.3395 176.13 19.4703C176.1 19.5712 176.01 19.634 175.911 19.634ZM218.692 16.9499C217.593 16.9499 216.413 16.7557 215.082 16.3578C214.962 16.3217 214.894 16.1941 214.93 16.0742C214.966 15.9543 215.094 15.8838 215.214 15.9219C216.501 16.3064 217.639 16.4949 218.693 16.4949C218.695 16.4949 218.697 16.4949 218.699 16.4949L218.876 16.493L218.884 16.948L218.697 16.9499C218.695 16.9499 218.693 16.9499 218.692 16.9499ZM222.59 16.2132C222.497 16.2132 222.407 16.1542 222.375 16.0609C222.333 15.9409 222.396 15.8115 222.516 15.7715C223.755 15.3413 224.856 14.755 225.785 14.0278C225.883 13.9498 226.026 13.9669 226.104 14.0678C226.182 14.1668 226.165 14.3095 226.064 14.3876C225.095 15.1452 223.953 15.7563 222.666 16.2036C222.64 16.2094 222.615 16.2132 222.59 16.2132ZM211.599 15.0272C211.568 15.0272 211.538 15.0215 211.509 15.0082C210.833 14.7169 210.14 14.4085 209.427 14.0868C208.974 13.885 208.509 13.6775 208.037 13.4681C207.923 13.4186 207.869 13.2835 207.921 13.1674C207.972 13.0512 208.109 12.9998 208.222 13.0512C208.694 13.2606 209.158 13.4662 209.613 13.6718C210.327 13.9897 211.018 14.3 211.69 14.5894C211.806 14.6389 211.859 14.774 211.81 14.8882C211.77 14.9758 211.686 15.0272 211.599 15.0272ZM192.705 14.6217C192.625 14.6217 192.545 14.5779 192.505 14.5018C191.94 13.4567 191.257 12.3926 190.474 11.338C190.4 11.2371 190.421 11.0943 190.522 11.0201C190.623 10.9458 190.765 10.9668 190.84 11.0677C191.633 12.1394 192.328 13.2226 192.905 14.2867C192.966 14.3971 192.924 14.5342 192.814 14.5951C192.779 14.6141 192.743 14.6217 192.705 14.6217ZM179.869 13.2416C179.812 13.2416 179.755 13.2207 179.711 13.1788C179.62 13.0912 179.618 12.9465 179.705 12.8571C179.802 12.7562 179.901 12.6553 180.004 12.5544C180.882 11.6787 181.737 10.9611 182.618 10.3614C182.723 10.2929 182.863 10.3176 182.934 10.4223C183.004 10.527 182.978 10.6679 182.873 10.7383C182.016 11.3208 181.183 12.0214 180.324 12.878C180.225 12.977 180.128 13.076 180.033 13.1731C179.989 13.2188 179.928 13.2416 179.869 13.2416ZM204.626 12.0309C204.599 12.0309 204.57 12.0271 204.544 12.0157C203.299 11.536 202.13 11.1381 200.969 10.7993C200.849 10.7631 200.778 10.6374 200.815 10.5175C200.849 10.3976 200.978 10.3291 201.096 10.3633C202.269 10.7079 203.449 11.1095 204.708 11.5931C204.826 11.6387 204.885 11.7701 204.839 11.8881C204.803 11.9757 204.717 12.0309 204.626 12.0309ZM228.368 11.5664C228.33 11.5664 228.292 11.5569 228.257 11.5379C228.147 11.4769 228.107 11.338 228.168 11.2276C228.737 10.2015 229.135 9.02317 229.352 7.7249C229.373 7.60116 229.493 7.5174 229.615 7.53834C229.738 7.55928 229.822 7.6754 229.801 7.80104C229.575 9.14881 229.16 10.3766 228.568 11.4484C228.526 11.5245 228.448 11.5664 228.368 11.5664ZM197.367 9.8265C197.348 9.8265 197.331 9.82459 197.312 9.82079C195.846 9.44958 194.675 9.19069 193.623 9.00223C193.499 8.98129 193.417 8.86136 193.438 8.73762C193.459 8.61389 193.571 8.52251 193.703 8.55297C194.765 8.74143 195.947 9.00413 197.422 9.37724C197.544 9.4077 197.618 9.53144 197.588 9.65327C197.561 9.75797 197.468 9.8265 197.367 9.8265ZM186.145 9.12977C186.048 9.12977 185.957 9.06505 185.928 8.96796C185.892 8.84803 185.961 8.72049 186.081 8.68432C186.589 8.53203 187.107 8.41401 187.642 8.32834C186.815 7.64875 185.892 7.00723 184.887 6.42091C184.778 6.35809 184.742 6.21722 184.805 6.10872C184.87 6.00021 185.007 5.96214 185.117 6.02686C186.271 6.70265 187.324 7.44697 188.245 8.24078C188.249 8.24268 188.251 8.24458 188.253 8.24649C188.751 8.19128 189.269 8.16463 189.804 8.16463C189.808 8.16463 189.81 8.16463 189.814 8.16463H189.894C190.019 8.16463 190.122 8.26552 190.122 8.39307C190.122 8.51871 190.021 8.6215 189.894 8.6215H189.814C189.81 8.6215 189.808 8.6215 189.804 8.6215C188.506 8.6215 187.331 8.78521 186.212 9.12025C186.189 9.12596 186.168 9.12977 186.145 9.12977ZM155.777 5.2578C155.693 5.2578 155.613 5.21211 155.573 5.13216C155.516 5.01984 155.564 4.88278 155.676 4.82758C156.795 4.27172 157.985 3.78249 159.217 3.37892C159.337 3.34084 159.464 3.40557 159.504 3.52359C159.544 3.64352 159.477 3.77106 159.359 3.81104C158.149 4.2089 156.98 4.68671 155.88 5.23495C155.845 5.25018 155.811 5.2578 155.777 5.2578ZM181.599 4.77999C181.571 4.77999 181.542 4.77427 181.514 4.76285C180.377 4.29837 179.176 3.8929 177.946 3.55595C177.825 3.52359 177.754 3.39795 177.786 3.27612C177.819 3.15429 177.946 3.08005 178.066 3.11622C179.315 3.45887 180.533 3.87005 181.687 4.34215C181.803 4.38974 181.86 4.523 181.811 4.63912C181.775 4.72668 181.689 4.77999 181.599 4.77999ZM229.74 4.2089C229.62 4.2089 229.521 4.11562 229.512 3.99569C229.439 2.83638 229.261 1.5838 228.983 0.274103C228.956 0.150368 229.034 0.0304392 229.158 0.00378845C229.285 -0.0228623 229.401 0.05709 229.428 0.178922C229.712 1.50956 229.894 2.78308 229.967 3.96714C229.974 4.09278 229.879 4.20128 229.754 4.2089C229.75 4.2089 229.744 4.2089 229.74 4.2089ZM162.961 2.88397C162.854 2.88397 162.757 2.80783 162.736 2.69932C162.714 2.57559 162.795 2.45566 162.917 2.43282C164.149 2.20248 165.424 2.04257 166.709 1.95881C166.848 1.94929 166.943 2.04638 166.951 2.17202C166.959 2.29766 166.863 2.40616 166.738 2.41378C165.47 2.49563 164.214 2.65364 163.001 2.88017C162.988 2.88207 162.974 2.88397 162.961 2.88397ZM174.295 2.76595C174.284 2.76595 174.272 2.76595 174.259 2.76214C173.02 2.56797 171.758 2.43662 170.507 2.37951C170.381 2.3738 170.284 2.2672 170.29 2.14156C170.296 2.01973 170.397 1.92455 170.518 1.92455C170.522 1.92455 170.526 1.92455 170.528 1.92455C171.796 1.98546 173.075 2.11491 174.329 2.31289C174.453 2.33192 174.539 2.44804 174.518 2.57368C174.503 2.686 174.406 2.76595 174.295 2.76595Z" fill="#313540"/>
<path d="M54.5438 44.0385H23.172C19.2867 44.0385 16.1362 40.888 16.1362 37.0027V22.0154C16.1362 18.1301 19.2867 14.9796 23.172 14.9796H54.5419C58.4272 14.9796 61.5777 18.1301 61.5777 22.0154V37.0027C61.5796 40.888 58.4291 44.0385 54.5438 44.0385Z" fill="white"/>
<path d="M54.5437 44.4192H23.1719C19.0829 44.4192 15.7554 41.0935 15.7554 37.0045V22.0173C15.7554 17.9283 19.0829 14.6027 23.1719 14.6027H54.5417C58.6307 14.6027 61.9583 17.9283 61.9583 22.0173V37.0045C61.9583 41.0916 58.6326 44.4192 54.5437 44.4192ZM23.1719 15.3584C19.5017 15.3584 16.5149 18.3452 16.5149 22.0154V37.0026C16.5149 40.6728 19.5017 43.6596 23.1719 43.6596H54.5417C58.2119 43.6596 61.1987 40.6728 61.1987 37.0026V22.0154C61.1987 18.3452 58.2119 15.3584 54.5417 15.3584H23.1719Z" fill="#313540"/>
<path d="M50.2339 24.3131H27.4799C27.2705 24.3131 27.1011 24.1436 27.1011 23.9342C27.1011 23.7248 27.2705 23.5554 27.4799 23.5554H50.2339C50.4433 23.5554 50.6128 23.7248 50.6128 23.9342C50.6147 24.1436 50.4452 24.3131 50.2339 24.3131Z" fill="#313540"/>
<path d="M50.2339 29.8889H27.4799C27.2705 29.8889 27.1011 29.7194 27.1011 29.51C27.1011 29.3006 27.2705 29.1312 27.4799 29.1312H50.2339C50.4433 29.1312 50.6128 29.3006 50.6128 29.51C50.6147 29.7194 50.4452 29.8889 50.2339 29.8889Z" fill="#313540"/>
<path d="M50.2339 35.4626H27.4799C27.2705 35.4626 27.1011 35.2932 27.1011 35.0838C27.1011 34.8744 27.2705 34.705 27.4799 34.705H50.2339C50.4433 34.705 50.6128 34.8744 50.6128 35.0838C50.6147 35.2932 50.4452 35.4626 50.2339 35.4626Z" fill="#313540"/>
<path d="M25.4501 41.2892C25.7472 36.7773 22.3304 32.8788 17.8186 32.5818C13.3067 32.2847 9.40824 35.7015 9.11116 40.2133C8.81408 44.7252 12.2308 48.6236 16.7427 48.9207C21.2546 49.2178 25.153 45.801 25.4501 41.2892Z" fill="white"/>
<path d="M17.2821 49.3172C12.5592 49.3172 8.71582 45.4738 8.71582 40.7509C8.71582 36.028 12.5592 32.1846 17.2821 32.1846C22.0069 32.1846 25.8485 36.028 25.8485 40.7509C25.8504 45.4738 22.0069 49.3172 17.2821 49.3172ZM17.2821 32.9422C12.9761 32.9422 9.47537 36.4449 9.47537 40.749C9.47537 45.0531 12.978 48.5558 17.2821 48.5558C21.5881 48.5558 25.0908 45.0531 25.0908 40.749C25.0908 36.4449 21.5881 32.9422 17.2821 32.9422Z" fill="#313540"/>
<path d="M16.4179 45.3292L11.4189 39.921L12.5421 38.8778L17.541 44.286L16.4179 45.3292Z" fill="white"/>
<path d="M21.9241 37.1498L15.3091 44.2844L16.4328 45.3263L23.0478 38.1917L21.9241 37.1498Z" fill="white"/>
<path d="M16.4181 45.708C16.3153 45.708 16.2144 45.668 16.1401 45.5861L10.8823 39.9L12.5632 38.3409L16.7055 42.8221C16.8483 42.9763 16.8388 43.2161 16.6846 43.3589C16.5304 43.4998 16.2905 43.4922 16.1478 43.338L12.5213 39.4146L11.9541 39.94L16.696 45.0703C16.8388 45.2245 16.8293 45.4643 16.6751 45.6071C16.6027 45.6756 16.5094 45.708 16.4181 45.708Z" fill="#313540"/>
<path d="M16.4314 45.7079C16.34 45.7079 16.2467 45.6737 16.1725 45.607C16.0183 45.4643 16.0107 45.2244 16.1516 45.0702L22.5097 38.2153L21.9424 37.6899L16.7036 43.3379C16.5608 43.4921 16.321 43.5016 16.1668 43.3589C16.0126 43.2161 16.005 42.9762 16.1458 42.822L21.9005 36.6162L23.5814 38.1753L16.7074 45.588C16.6351 45.6679 16.5323 45.7079 16.4314 45.7079Z" fill="#313540"/>
<path d="M187.683 27.6539H52.2555C49.7599 27.6539 47.7363 29.6775 47.7363 32.1731V137.004C47.7363 139.5 49.7599 141.523 52.2555 141.523H187.685C190.181 141.523 192.204 139.5 192.204 137.004V32.1712C192.203 29.6756 190.179 27.6539 187.683 27.6539Z" fill="white"/>
<path d="M192.203 40.9375H47.7363V32.1713C47.7363 29.6757 49.7599 27.6521 52.2555 27.6521H187.685C190.181 27.6521 192.204 29.6757 192.204 32.1713V40.9375H192.203Z" fill="#313540"/>
<path d="M50.1406 34.6079C50.1406 32.1123 52.1642 30.0887 54.6598 30.0887H190.089C190.659 30.0887 191.199 30.1991 191.7 30.3895C190.95 28.9351 189.435 27.9376 187.685 27.9376H52.2555C49.7599 27.9376 47.7363 29.9612 47.7363 32.4568V41.223H50.1406V34.6079Z" fill="white"/>
<path d="M156.353 112.331H83.5854V121.004H156.353V112.331Z" fill="#1F57E8"/>
<path d="M187.683 141.521H52.2555C49.7599 141.521 47.7363 139.498 47.7363 137.002V135.7H192.203V137.002C192.203 139.498 190.179 141.521 187.683 141.521Z" fill="#B8BFD9"/>
<path d="M50.7726 137.004V135.702H47.7363V137.004C47.7363 139.5 49.7599 141.523 52.2555 141.523H55.2918C52.7962 141.521 50.7726 139.498 50.7726 137.004Z" fill="white"/>
<path d="M187.685 141.902H52.2555C49.5542 141.902 47.3574 139.705 47.3574 137.004V32.1712C47.3574 29.47 49.5542 27.2732 52.2555 27.2732H187.685C190.386 27.2732 192.583 29.47 192.583 32.1712V137.004C192.583 139.703 190.384 141.902 187.685 141.902ZM52.2555 28.0327C49.973 28.0327 48.117 29.8907 48.117 32.1712V137.004C48.117 139.286 49.973 141.142 52.2555 141.142H187.685C189.968 141.142 191.824 139.284 191.824 137.004V32.1712C191.824 29.8888 189.966 28.0327 187.685 28.0327H52.2555Z" fill="#313540"/>
<path d="M129.103 67H110.883V48.7804H129.103V67ZM111.643 66.2424H128.343V49.5418H111.643V66.2424Z" fill="#313540"/>
<path d="M156.757 67H138.537V48.7804H156.757V67ZM139.297 66.2424H155.997V49.5418H139.297V66.2424Z" fill="#313540"/>
<path d="M184.409 67H166.189V48.7804H184.409V67ZM166.951 66.2424H183.651V49.5418H166.951V66.2424Z" fill="#313540"/>
<path d="M128.724 82.9429H55.9561V91.6158H128.724V82.9429Z" fill="#313540"/>
<path d="M129.103 91.9946H55.5752V82.5621H129.101V91.9946H129.103ZM56.3347 91.237H128.343V83.3217H56.3347V91.237Z" fill="#313540"/>
<path d="M101.087 62.6084H55.5752V53.1759H101.087V62.6084ZM56.3347 61.8488H100.328V53.9335H56.3347V61.8488Z" fill="#313540"/>
<path d="M156.732 121.383H83.2065V111.95H156.732V121.383ZM83.9661 120.625H155.975V112.71H83.9661V120.625Z" fill="#313540"/>
<path d="M156.757 96.3882H138.537V78.1686H156.757V96.3882ZM139.297 95.6286H155.997V78.9281H139.297V95.6286Z" fill="#313540"/>
<path d="M184.409 96.3882H166.189V78.1686H184.409V96.3882ZM166.951 95.6286H183.651V78.9281H166.951V95.6286Z" fill="#313540"/>
<path d="M184.409 125.776H166.189V107.557H184.409V125.776ZM166.951 125.017H183.651V108.316H166.951V125.017Z" fill="#313540"/>
<path d="M73.7948 125.776H55.5752V107.557H73.7948V125.776ZM56.3347 125.017H73.0353V108.316H56.3347V125.017Z" fill="#313540"/>
<path d="M118.652 64.4625L108.403 53.3738L110.708 51.238L120.957 62.3266L118.652 64.4625Z" fill="white"/>
<path d="M129.934 47.6921L116.373 62.3187L118.678 64.4555L132.239 49.829L129.934 47.6921Z" fill="white"/>
<path d="M118.652 64.8413C118.549 64.8413 118.449 64.8013 118.374 64.7195L107.868 53.3529L110.729 50.7012L118.949 59.5949C119.092 59.7491 119.082 59.989 118.928 60.1317C118.774 60.2726 118.534 60.265 118.391 60.1108L110.687 51.7748L108.94 53.3948L118.932 64.2036C119.075 64.3578 119.065 64.5976 118.911 64.7404C118.837 64.8089 118.745 64.8413 118.652 64.8413Z" fill="#313540"/>
<path d="M118.679 64.8413C118.587 64.8413 118.494 64.8071 118.42 64.7404C118.266 64.5977 118.258 64.3578 118.399 64.2036L131.703 49.856L129.956 48.236L118.947 60.1089C118.804 60.2631 118.565 60.2726 118.41 60.1299C118.256 59.9871 118.249 59.7472 118.39 59.593L129.916 47.1624L132.777 49.816L118.957 64.7195C118.883 64.8014 118.782 64.8413 118.679 64.8413Z" fill="#313540"/>
<path d="M146.306 93.8506L136.057 82.762L138.362 80.6261L148.612 91.7147L146.306 93.8506Z" fill="#313540"/>
<path d="M157.587 77.0787L144.026 91.7053L146.331 93.8421L159.892 79.2156L157.587 77.0787Z" fill="#313540"/>
<path d="M146.306 94.2294C146.203 94.2294 146.102 94.1894 146.028 94.1075L135.522 82.741L138.383 80.0892L146.603 88.983C146.746 89.1372 146.736 89.377 146.582 89.5198C146.428 89.6626 146.188 89.653 146.045 89.4989L138.341 81.1629L136.594 82.7829L146.586 93.5917C146.729 93.7458 146.719 93.9857 146.565 94.1285C146.491 94.197 146.397 94.2294 146.306 94.2294Z" fill="#313540"/>
<path d="M146.333 94.2294C146.24 94.2294 146.148 94.1951 146.074 94.1285C145.92 93.9857 145.91 93.7459 146.053 93.5917L159.356 79.244L157.608 77.6241L146.597 89.497C146.457 89.6512 146.215 89.6607 146.061 89.5179C145.906 89.3751 145.897 89.1353 146.04 88.9811L157.566 76.5504L160.425 79.2041L146.605 94.1076C146.537 94.1894 146.434 94.2294 146.333 94.2294Z" fill="#313540"/>
<path d="M76.3629 17.5724H76.2849C74.1338 17.5724 72.3882 19.3161 72.3882 21.4691V33.6257C72.3882 35.7768 74.1319 37.5224 76.2849 37.5224H76.3629C78.514 37.5224 80.2597 35.7787 80.2597 33.6257V21.4691C80.2597 19.318 78.514 17.5724 76.3629 17.5724Z" fill="white"/>
<path d="M76.3629 37.9012H76.2848C73.9281 37.9012 72.0093 35.9823 72.0093 33.6256V21.471C72.0093 19.1143 73.9281 17.1954 76.2848 17.1954H76.3629C78.7215 17.1954 80.6384 19.1143 80.6384 21.471V33.6256C80.6384 35.9823 78.7196 37.9012 76.3629 37.9012ZM76.2829 17.9531C74.3431 17.9531 72.7669 19.5312 72.7669 21.4691V33.6237C72.7669 35.5635 74.345 37.1397 76.2829 37.1397H76.361C78.3008 37.1397 79.877 35.5616 79.877 33.6237V21.4691C79.877 19.5293 78.2989 17.9531 76.361 17.9531H76.2829Z" fill="#313540"/>
<path d="M163.576 17.5724H163.654C165.805 17.5724 167.551 19.3161 167.551 21.4691V33.6257C167.551 35.7768 165.807 37.5224 163.654 37.5224H163.576C161.425 37.5224 159.679 35.7787 159.679 33.6257V21.4691C159.681 19.318 161.425 17.5724 163.576 17.5724Z" fill="white"/>
<path d="M163.656 37.9012H163.578C161.221 37.9012 159.302 35.9823 159.302 33.6256V21.471C159.302 19.1143 161.221 17.1954 163.578 17.1954H163.656C166.013 17.1954 167.931 19.1143 167.931 21.471V33.6256C167.931 35.9823 166.013 37.9012 163.656 37.9012ZM163.578 17.9531C161.638 17.9531 160.062 19.5312 160.062 21.4691V33.6237C160.062 35.5635 161.64 37.1397 163.578 37.1397H163.656C165.594 37.1397 167.172 35.5616 167.172 33.6237V21.4691C167.172 19.5293 165.594 17.9531 163.656 17.9531H163.578Z" fill="#313540"/>
<path d="M192.202 136.081H47.7362C47.5268 136.081 47.3574 135.911 47.3574 135.702C47.3574 135.492 47.5268 135.323 47.7362 135.323H192.202C192.412 135.323 192.581 135.492 192.581 135.702C192.583 135.911 192.412 136.081 192.202 136.081Z" fill="#313540"/>
<path d="M192.202 41.1678H47.7362C47.5268 41.1678 47.3574 40.9984 47.3574 40.789C47.3574 40.5796 47.5268 40.4102 47.7362 40.4102H192.202C192.412 40.4102 192.581 40.5796 192.581 40.789C192.583 40.9984 192.412 41.1678 192.202 41.1678Z" fill="#313540"/>
<path d="M263.668 56.5141C273.28 46.9019 273.28 31.3174 263.668 21.7051C254.056 12.0929 238.471 12.0929 228.859 21.7051C219.247 31.3174 219.247 46.9019 228.859 56.5141C238.471 66.1263 254.056 66.1263 263.668 56.5141Z" fill="white"/>
<path d="M259.276 52.1219C266.463 44.9354 266.463 33.2838 259.276 26.0973C252.09 18.9108 240.438 18.9108 233.252 26.0973C226.065 33.2838 226.065 44.9354 233.252 52.1219C240.438 59.3084 252.09 59.3084 259.276 52.1219Z" fill="white"/>
<path d="M246.266 64.1008C232.483 64.1008 221.271 52.8884 221.271 39.1062C221.271 25.3239 232.483 14.1116 246.266 14.1116C260.048 14.1116 271.26 25.3239 271.26 39.1062C271.26 52.8903 260.048 64.1008 246.266 64.1008ZM246.266 14.873C232.902 14.873 222.031 25.7446 222.031 39.1081C222.031 52.4715 232.902 63.3431 246.266 63.3431C259.629 63.3431 270.501 52.4715 270.501 39.1081C270.501 25.7446 259.629 14.873 246.266 14.873Z" fill="#313540"/>
<path d="M246.266 57.8912C235.908 57.8912 227.482 49.4658 227.482 39.1081C227.482 28.7524 235.908 20.3251 246.266 20.3251C256.623 20.3251 265.049 28.7505 265.049 39.1081C265.049 49.4639 256.623 57.8912 246.266 57.8912ZM246.266 21.0846C236.327 21.0846 228.242 29.1693 228.242 39.1081C228.242 49.047 236.329 57.1317 246.266 57.1317C256.204 57.1317 264.289 49.0451 264.289 39.1081C264.289 29.1693 256.204 21.0846 246.266 21.0846Z" fill="#313540"/>
<path d="M244.322 49.3991L233.084 37.2426L235.611 34.9011L246.848 47.0577L244.322 49.3991Z" fill="#1F57E8"/>
<path d="M256.685 31.0099L241.816 47.0463L244.343 49.3889L259.212 33.3525L256.685 31.0099Z" fill="#1F57E8"/>
<path d="M244.322 49.7798C244.219 49.7798 244.118 49.7398 244.044 49.6579L232.55 37.2216L235.632 34.3623L244.619 44.086C244.762 44.2402 244.752 44.4801 244.598 44.6228C244.444 44.7656 244.204 44.7561 244.061 44.6019L235.59 35.4359L233.622 37.2634L244.602 49.1421C244.744 49.2962 244.735 49.5361 244.581 49.6789C244.506 49.7455 244.413 49.7798 244.322 49.7798Z" fill="#313540"/>
<path d="M244.35 49.7798C244.257 49.7798 244.166 49.7456 244.091 49.6789C243.937 49.5362 243.928 49.2963 244.071 49.1421L258.681 33.3858L256.711 31.5602L244.615 44.6039C244.474 44.7581 244.232 44.7676 244.078 44.6248C243.924 44.482 243.914 44.2422 244.057 44.088L256.669 30.4866L259.753 33.3458L259.494 33.6237L244.625 49.658C244.554 49.7398 244.453 49.7798 244.35 49.7798Z" fill="#313540"/>
<path d="M214.842 85.3662L211.888 87.1689L211.616 87.7381C211.616 87.7381 206.678 89.3771 204.719 91.435C202.76 93.4947 198.11 97.2886 195.991 100.294C193.872 103.3 187.228 113.506 187.228 113.506C187.228 113.506 181.186 96.9421 181.093 97.005C180.998 97.0678 167.208 100.768 167.208 100.768C167.208 100.768 170.654 112.51 171.668 115.327C172.683 118.145 175.527 124.712 176.57 126.705C177.613 128.698 180.669 132.504 183.332 133.084C185.995 133.665 188.127 133.437 189.069 133.28C190.012 133.126 193.271 131.354 194.693 130.564C196.116 129.774 200.417 125.693 200.417 125.693L199.278 149.225L200.133 149.699L258.692 149.258C258.692 149.258 260.278 133.758 259.606 130.72C258.934 127.682 255.645 112.853 255.138 111.198C254.632 109.544 252.094 102.904 252.094 102.904C252.094 102.904 245.333 93.9021 239.957 90.2966C235.373 87.9761 235.266 87.9761 235.266 87.9761L235.023 87.167L230.595 84.7951L218.72 93.7859L215.118 85.0673L214.842 85.3662Z" fill="#1F57E8"/>
<path d="M198.165 100.932C204.049 93.2148 211.77 89.2534 211.77 89.2534L211.863 88.6042L215.594 86.811L215.048 85.153L214.298 85.4518L211.819 87.2546L211.073 87.8237C211.073 87.8237 205.157 90.6202 203.198 92.6799C201.239 94.7396 197.852 97.7321 195.734 100.738C194.31 102.758 189.733 110.132 187.613 113.372C188.327 115.331 195.935 103.856 198.165 100.932Z" fill="white"/>
<path d="M178.997 127.455C177.885 125.5 175.075 118.906 174.095 116.077C172.071 110.248 169.248 100.352 169.248 100.352C169.248 100.352 180.565 97.0792 180.548 97.0906C180.453 97.1534 167.139 100.736 167.139 100.736C167.139 100.736 170.49 112.769 171.504 115.586C172.519 118.404 175.348 124.72 176.391 126.713C177.434 128.706 180.124 132.591 182.789 133.17C183.482 133.32 184.135 133.416 184.744 133.473C182.359 132.325 180.92 130.838 178.997 127.455Z" fill="white"/>
<path d="M202.592 124.67C202.592 124.67 203.833 102.912 202.389 104.743L199.059 149.294L199.588 149.785L201.715 149.77L202.592 124.67Z" fill="white"/>
<path d="M207.399 60.9902C205.252 59.2998 203.813 55.3707 205.433 51.5159C207.055 47.661 212.95 44.0441 221.61 45.409C230.269 46.7739 231.733 53.9182 231.95 57.4304C232.167 60.9426 231.012 64.0741 231.012 64.0741C231.012 64.0741 229.097 62.8443 227.873 63.3888C226.647 63.2993 226.3 62.5226 225.604 61.1634C224.907 59.8042 223.264 55.6772 223.001 53.3529C220.837 53.9373 216.527 55.148 212.779 55.2298C209.031 55.3117 208.045 56.8803 207.898 58.4451C207.753 60.0098 207.776 60.8151 207.399 60.9902Z" fill="#B8BFD9"/>
<path d="M208.945 56.5053C207.333 58.3556 207.715 61.7784 208.145 64.6966C208.574 67.6168 208.496 71.4488 208.994 73.1373C209.493 74.8258 210.601 79.1927 215.992 79.7295C215.817 81.9111 216.449 84.3078 215.627 86.0039C216.86 89.9768 218.739 93.8678 218.739 93.8678L230.304 84.7703C230.304 84.7703 229.733 82.0977 229.285 78.2752C228.838 74.4527 228.92 69.4957 228.92 69.4957C230.972 68.955 232.04 67.2589 231.518 65.4923C230.997 63.7258 229.786 62.3361 227.355 63.4878C225.849 62.3494 224.208 59.5245 223.635 56.848C223.062 54.1734 223.279 53.5185 222.744 53.252C222.209 52.9855 219.664 54.8511 216.053 55.2451C210.812 54.7825 208.983 56.4615 208.945 56.5053Z" fill="white"/>
<path d="M216.009 75.6901C215.56 75.6901 215.105 75.6291 214.657 75.5035C214.456 75.4464 214.338 75.237 214.395 75.0352C214.452 74.8334 214.661 74.7173 214.863 74.7725C216.599 75.2617 218.539 74.5441 219.365 73.0992C219.47 72.9165 219.704 72.8556 219.883 72.9584C220.066 73.0631 220.128 73.2953 220.024 73.4761C219.23 74.8658 217.665 75.6901 216.009 75.6901Z" fill="#313540"/>
<path d="M218.872 94.4065L222.148 100.171L219.344 104.545L221.92 137.411C221.92 137.411 215.67 146.332 215.575 146.335C215.48 146.337 209.179 137.805 209.179 137.805L215.343 104.136L214.395 99.375L218.615 94.3475L218.872 94.4065Z" fill="#313540"/>
<path d="M210.586 137.803L216.75 104.134L215.802 99.3731L218.979 94.7872L218.762 94.4046L218.507 94.3456L214.286 99.3731L215.234 104.134L209.07 137.803C209.07 137.803 215.371 146.337 215.466 146.334C215.486 146.334 215.771 145.949 216.205 145.346C214.496 143.101 210.586 137.803 210.586 137.803Z" fill="white"/>
<path d="M215.568 146.714C215.311 146.714 215.124 146.492 208.876 138.03L208.779 137.899L214.96 104.138L214.098 99.8109C214.058 99.6053 214.191 99.4054 214.397 99.3654C214.599 99.3255 214.802 99.4568 214.842 99.6643L215.733 104.134L215.72 104.204L209.586 137.714C211.675 140.541 214.652 144.552 215.57 145.732C216.474 144.502 219.453 140.274 221.532 137.309L218.958 104.452L221.831 99.9689C221.945 99.7919 222.179 99.7404 222.354 99.8547C222.531 99.967 222.582 100.203 222.468 100.378L219.733 104.646L222.308 137.522L222.23 137.634C215.872 146.711 215.851 146.711 215.589 146.718C215.581 146.714 215.575 146.714 215.568 146.714Z" fill="#313540"/>
<path d="M181.076 97.1934C181.076 97.1934 180.326 97.4885 180.099 97.0563C179.873 96.6242 181.843 91.0885 181.927 90.2242C182.011 89.36 182.54 87.3003 182.245 86.2C181.95 85.0997 172.936 85.6688 172.936 85.6688L166.707 84.658C166.707 84.658 164.722 89.7788 164.899 91.1703C165.076 92.5619 165.936 96.9992 165.936 96.9992C165.936 96.9992 167.811 100.586 167.646 100.73C167.48 100.877 181.076 97.1934 181.076 97.1934Z" fill="white"/>
<path d="M173.42 90.3117C173.119 90.3117 172.826 90.2489 172.555 90.1195C171.847 89.7825 170.96 88.8307 170.758 86.217C170.661 84.9568 170.48 82.6077 172.028 81.9891C172.826 81.6769 173.667 81.4503 174.409 81.9148C175.399 82.5316 175.965 84.2696 176.243 87.5496C176.307 88.3072 175.782 89.2114 174.939 89.7958C174.444 90.1366 173.918 90.3117 173.42 90.3117ZM173.458 82.4079C173.163 82.4079 172.797 82.5011 172.308 82.6934C171.404 83.0551 171.392 84.5723 171.514 86.158C171.649 87.9151 172.135 89.0782 172.881 89.4322C173.545 89.7501 174.238 89.3542 174.506 89.1676C175.106 88.7527 175.527 88.0845 175.487 87.6105C175.239 84.6732 174.756 83.0208 174.01 82.5563C173.85 82.4574 173.673 82.4079 173.458 82.4079Z" fill="#313540"/>
<path d="M168.628 90.7039C168.327 90.7039 168.034 90.6411 167.764 90.5116C167.056 90.1747 166.168 89.2229 165.967 86.6092C165.87 85.3471 165.689 82.998 167.238 82.3813C168.036 82.0691 168.877 81.8444 169.62 82.307C170.61 82.9238 171.175 84.6618 171.453 87.9417C171.518 88.6994 170.992 89.6036 170.149 90.188C169.652 90.5288 169.127 90.7039 168.628 90.7039ZM168.666 82.8001C168.371 82.8001 168.005 82.8933 167.516 83.0856C166.612 83.4473 166.601 84.9645 166.722 86.5502C166.858 88.3072 167.343 89.4704 168.089 89.8244C168.754 90.1404 169.448 89.7464 169.715 89.5598C170.315 89.1448 170.735 88.4767 170.695 88.0027C170.448 85.0654 169.964 83.413 169.218 82.9485C169.058 82.8495 168.881 82.8001 168.666 82.8001Z" fill="#313540"/>
<path d="M162.641 87.3383C162.552 86.1676 162.474 84.5209 163.509 84.1079C165.036 83.5101 166.195 83.5615 166.612 88.509C166.741 90.0472 163.043 92.56 162.641 87.3383Z" fill="white"/>
<path d="M164.558 90.8619C164.297 90.8619 164.042 90.8067 163.806 90.6944C162.919 90.2718 162.401 89.1525 162.264 87.3669C162.18 86.2913 162.026 84.2906 163.37 83.7538C164.055 83.4854 164.777 83.2912 165.424 83.6967C166.273 84.224 166.756 85.6993 166.991 88.4748C167.046 89.1334 166.595 89.9139 165.867 90.4165C165.441 90.7115 164.99 90.8619 164.558 90.8619ZM164.588 84.224C164.35 84.224 164.05 84.302 163.646 84.46C162.824 84.7893 162.955 86.4912 163.018 87.3097C163.13 88.7622 163.524 89.7216 164.131 90.0091C164.661 90.2604 165.22 89.9406 165.435 89.7921C165.921 89.4551 166.265 88.9164 166.233 88.5376C166.029 86.1257 165.622 84.7132 165.02 84.3401C164.899 84.2639 164.758 84.224 164.588 84.224Z" fill="#313540"/>
<path d="M161.67 84.3248L189.299 86.8452C189.998 86.9061 190.615 86.3884 190.676 85.6897L190.805 84.203C190.866 83.5044 190.348 82.8876 189.65 82.8267L162.022 80.3063L153.962 81.4504C153.77 81.477 153.747 81.7454 153.932 81.8044L161.67 84.3248Z" fill="white"/>
<path d="M189.412 87.2279C189.364 87.2279 189.315 87.226 189.267 87.2202L161.554 84.6827L153.814 82.1642C153.563 82.0824 153.405 81.8425 153.427 81.5817C153.45 81.319 153.648 81.1096 153.909 81.0734L162.011 79.9236L162.055 79.9275L189.682 82.4478C190.12 82.4859 190.516 82.6934 190.801 83.0304C191.085 83.3673 191.22 83.7956 191.182 84.2335L191.053 85.7183C191.015 86.158 190.807 86.5559 190.47 86.8395C190.169 87.0946 189.8 87.2279 189.412 87.2279ZM161.748 83.9498L189.334 86.4664C189.574 86.4873 189.8 86.4131 189.983 86.2608C190.164 86.1066 190.276 85.8915 190.297 85.6555L190.426 84.1706C190.447 83.9327 190.373 83.7023 190.221 83.5196C190.067 83.3387 189.851 83.2264 189.615 83.2055L162.03 80.6889L154.855 81.7073L161.748 83.9498Z" fill="#313540"/>
<path d="M176.836 86.8947C176.4 86.8947 175.995 86.7748 175.65 86.533C175.007 86.0838 174.285 85.0006 174.514 82.3888C174.624 81.1286 174.828 78.7815 176.457 78.4236C177.295 78.2446 178.161 78.159 178.82 78.7377C179.697 79.5067 179.972 81.3133 179.709 84.597C179.648 85.3566 178.986 86.1599 178.057 86.5997C177.642 86.7976 177.228 86.8947 176.836 86.8947ZM175.27 82.4555C175.117 84.2125 175.407 85.4384 176.084 85.9105C176.688 86.3312 177.438 86.0533 177.731 85.9144C178.39 85.6022 178.915 85.0101 178.951 84.5361C179.185 81.5969 178.978 79.8875 178.317 79.3088C177.982 79.0175 177.508 78.9737 176.617 79.166C175.667 79.3754 175.409 80.8716 175.27 82.4555Z" fill="#313540"/>
<path d="M174.891 82.4232C175.013 81.0297 175.241 79.0804 176.537 78.7967C178.447 78.3894 179.798 78.6749 179.33 84.5704C179.183 86.4036 174.35 88.6366 174.891 82.4232Z" fill="white"/>
<path d="M174.891 82.4232C175.013 81.0297 175.241 79.0804 176.537 78.7967C178.447 78.3894 179.798 78.6749 179.33 84.5704C179.183 86.4036 174.35 88.6366 174.891 82.4232Z" fill="white"/>
<path d="M176.836 86.8947C176.4 86.8947 175.995 86.7748 175.65 86.533C175.007 86.0838 174.285 85.0006 174.514 82.3888C174.624 81.1286 174.828 78.7815 176.457 78.4236C177.295 78.2446 178.161 78.159 178.82 78.7377C179.697 79.5067 179.972 81.3133 179.709 84.597C179.648 85.3566 178.986 86.1599 178.057 86.5997C177.642 86.7976 177.228 86.8947 176.836 86.8947ZM175.27 82.4555C175.117 84.2125 175.407 85.4384 176.084 85.9105C176.688 86.3312 177.438 86.0533 177.731 85.9144C178.39 85.6022 178.915 85.0101 178.951 84.5361C179.185 81.5969 178.978 79.8875 178.317 79.3088C177.982 79.0175 177.508 78.9737 176.617 79.166C175.667 79.3754 175.409 80.8716 175.27 82.4555Z" fill="#313540"/>
<path d="M180.032 82.5297C176.284 81.0221 177.777 87.1746 177.514 89.2438L180.118 97.3875C180.259 94.5568 180.853 93.2776 181.744 90.3613C182.692 87.2679 182.637 83.5786 180.032 82.5297Z" fill="white"/>
<path d="M180.118 97.7683C180.113 97.7683 180.105 97.7683 180.099 97.7683C179.89 97.7588 179.728 97.5798 179.74 97.3704C179.856 95.0347 180.271 93.7364 180.903 91.7718C181.051 91.3112 181.211 90.8105 181.382 90.2508C182.302 87.2507 182.195 83.8071 179.892 82.8819C179.256 82.6268 178.778 82.6078 178.476 82.8248C177.678 83.394 177.792 85.5793 177.876 87.1727C177.922 88.0236 177.96 88.7584 177.891 89.2914C177.865 89.4989 177.67 89.6436 177.467 89.6207C177.259 89.5941 177.111 89.4037 177.137 89.1962C177.196 88.7299 177.158 87.9932 177.116 87.2127C177.012 85.2462 176.896 83.0171 178.032 82.2061C178.561 81.8273 179.283 81.8178 180.174 82.1757C183.113 83.3578 183.052 87.384 182.108 90.4717C181.934 91.0351 181.773 91.5377 181.624 92.0022C181.011 93.9096 180.608 95.1698 180.497 97.4047C180.488 97.6103 180.32 97.7683 180.118 97.7683Z" fill="#313540"/>
<path d="M167.838 100.955C167.745 100.955 167.651 100.921 167.577 100.85C165.472 98.8648 164.925 94.4712 164.564 91.5624C164.516 91.1798 164.472 90.8257 164.428 90.5116C164.4 90.3042 164.545 90.1119 164.752 90.0833C164.954 90.0529 165.152 90.1976 165.18 90.407C165.224 90.7249 165.268 91.0808 165.317 91.4692C165.666 94.2694 166.191 98.4993 168.097 100.298C168.249 100.443 168.257 100.683 168.112 100.835C168.04 100.915 167.939 100.955 167.838 100.955Z" fill="#313540"/>
<path d="M207.433 53.7146C208.385 49.8445 212.147 45.5233 222.026 45.4947C221.884 45.4681 221.756 45.43 221.61 45.4072C212.95 44.0423 207.053 47.6573 205.433 51.514C203.811 55.3708 205.25 59.2979 207.399 60.9884C207.776 60.8132 207.753 60.008 207.9 58.4432C207.926 58.1558 207.983 57.8702 208.077 57.5923C207.117 56.6709 207.127 54.9653 207.433 53.7146Z" fill="white"/>
<path d="M228.733 69.8783C228.314 69.8783 227.903 69.804 227.509 69.6536C227.313 69.5794 227.214 69.3605 227.288 69.1644C227.362 68.9664 227.583 68.8655 227.777 68.9436C228.16 69.0883 228.562 69.1435 228.969 69.1092C229.698 69.0483 230.359 68.7075 230.831 68.1498C231.303 67.592 231.529 66.8839 231.468 66.1548C231.407 65.4257 231.067 64.7651 230.509 64.293C229.951 63.8209 229.243 63.5944 228.514 63.6553C228.137 63.6858 227.779 63.7924 227.448 63.9694C227.263 64.0703 227.033 63.9999 226.934 63.8152C226.835 63.6306 226.904 63.4002 227.088 63.3012C227.513 63.0747 227.97 62.9396 228.451 62.8996C229.378 62.8215 230.286 63.1109 230.998 63.7143C231.71 64.3178 232.146 65.163 232.224 66.092C232.302 67.0228 232.013 67.9271 231.409 68.639C230.806 69.351 229.961 69.7869 229.032 69.865C228.931 69.8726 228.832 69.8783 228.733 69.8783Z" fill="#313540"/>
<path d="M230.279 66.5317C230.081 66.5317 229.915 66.3794 229.9 66.1795C229.879 65.9016 229.793 65.5247 229.496 65.2924C229.234 65.0888 228.84 65.0278 228.354 65.1154C228.151 65.1497 227.951 65.0164 227.913 64.8089C227.876 64.6033 228.012 64.4054 228.219 64.3673C228.918 64.2397 229.523 64.352 229.961 64.6909C230.372 65.0088 230.612 65.5056 230.658 66.1224C230.673 66.3318 230.515 66.5127 230.305 66.5279C230.298 66.5317 230.288 66.5317 230.279 66.5317Z" fill="#313540"/>
<path d="M211.309 65.4371C211.364 66.0901 211.098 66.6459 210.713 66.6764C210.331 66.7088 209.977 66.2043 209.921 65.5514C209.866 64.8984 210.133 64.3426 210.517 64.3121C210.9 64.2816 211.254 64.7861 211.309 65.4371Z" fill="#313540"/>
<path d="M207.955 62.9148C207.86 62.9148 207.764 62.8786 207.69 62.8082C207.54 62.6616 207.536 62.4218 207.681 62.2714C208.787 61.1311 210.542 60.4915 212.185 60.659C212.392 60.6799 212.544 60.8646 212.523 61.074C212.503 61.2815 212.329 61.4357 212.108 61.4128C210.725 61.2796 209.162 61.8316 208.225 62.7987C208.153 62.8748 208.054 62.9148 207.955 62.9148Z" fill="#313540"/>
<path d="M219.803 64.7309C219.858 65.3838 220.212 65.8864 220.595 65.8559C220.978 65.8236 221.244 65.2696 221.191 64.6167C221.136 63.9637 220.782 63.4612 220.399 63.4916C220.015 63.5221 219.75 64.0779 219.803 64.7309Z" fill="#313540"/>
<path d="M223.005 62.0029C222.912 62.0029 222.817 61.9687 222.744 61.8983C221.68 60.8931 219.876 60.4801 218.347 60.8931C218.143 60.9483 217.936 60.8284 217.881 60.6266C217.825 60.4248 217.945 60.2154 218.147 60.1602C219.914 59.6786 222.017 60.1679 223.264 61.3462C223.416 61.4909 223.422 61.7307 223.279 61.883C223.205 61.963 223.106 62.0029 223.005 62.0029Z" fill="#313540"/>
<path d="M214.364 70.6569C213.911 70.6569 213.546 70.5484 213.27 70.3333C212.967 70.0991 212.792 69.7527 212.748 69.3072C212.661 68.403 213.407 67.5654 214.189 67.2056C214.639 66.9981 214.777 65.9302 214.559 64.3483C214.53 64.1408 214.675 63.9485 214.882 63.9199C215.076 63.8933 215.282 64.0361 215.311 64.2436C215.594 66.29 215.324 67.5178 214.507 67.8947C213.986 68.1346 213.454 68.7152 213.504 69.233C213.527 69.4671 213.601 69.6308 213.734 69.7336C213.875 69.8421 214.17 69.9544 214.768 69.8631C214.972 69.8307 215.17 69.9735 215.2 70.181C215.232 70.3885 215.09 70.5826 214.882 70.6131C214.699 70.6416 214.526 70.6569 214.364 70.6569Z" fill="#313540"/>
<path d="M215.501 86.3866C215.44 86.3866 215.379 86.3732 215.322 86.3428C215.137 86.2438 215.067 86.0153 215.166 85.8288C215.691 84.8427 215.87 82.783 215.695 79.7048C215.684 79.4954 215.844 79.3165 216.053 79.3051C216.293 79.2822 216.441 79.4555 216.453 79.663C216.571 81.7455 216.636 84.6885 215.836 86.1867C215.768 86.3142 215.636 86.3866 215.501 86.3866Z" fill="#313540"/>
<path d="M230.141 84.7437C229.991 84.7437 229.85 84.6542 229.789 84.5076C228.729 81.9073 228.421 74.2737 228.257 70.1695L228.23 69.5128C228.223 69.3034 228.384 69.1263 228.594 69.1168C228.798 69.1187 228.978 69.271 228.99 69.4804L229.016 70.1391C229.167 73.9063 229.483 81.7436 230.494 84.2202C230.574 84.4144 230.48 84.6352 230.286 84.7151C230.239 84.7342 230.191 84.7437 230.141 84.7437Z" fill="#313540"/>
<path d="M216.691 80.0551C214.157 80.0551 212.154 79.2517 210.73 77.6603C209.35 76.1184 208.526 73.8454 208.282 70.9081L207.376 60.0423C207.367 59.9414 207.361 59.8405 207.355 59.7415C207.285 58.4127 207.789 57.1107 208.741 56.1684C209.683 55.2356 210.97 54.7464 212.287 54.8282C216.209 55.0757 220.425 54.2952 222.537 52.9379C222.727 52.8161 222.959 52.8009 223.161 52.9018C223.361 53.0007 223.49 53.193 223.505 53.4157C223.947 58.9305 226.193 62.0277 227.494 63.3831C227.638 63.5335 227.634 63.7753 227.482 63.9199C227.332 64.0665 227.09 64.0608 226.945 63.9085C225.592 62.4979 223.266 59.3075 222.765 53.688C220.479 55.0548 216.199 55.8314 212.238 55.5859C211.147 55.5154 210.062 55.9266 209.274 56.709C208.476 57.499 208.054 58.5898 208.111 59.7034C208.117 59.7948 208.122 59.8881 208.13 59.9813L209.036 70.8472C209.266 73.617 210.026 75.7396 211.294 77.1558C212.748 78.7815 214.907 79.4859 217.718 79.2536L217.802 79.246C218.427 79.1946 219.472 79.109 221.301 78.6673C221.507 78.6197 221.71 78.7435 221.76 78.9472C221.809 79.1508 221.684 79.3564 221.48 79.4059C219.594 79.8609 218.512 79.9504 217.867 80.0037L217.783 80.0113C217.408 80.0379 217.045 80.0551 216.691 80.0551Z" fill="#313540"/>
<path d="M187.279 114.296C187.213 114.296 187.146 114.278 187.083 114.242C186.904 114.134 186.845 113.9 186.954 113.721C194.822 100.656 201.193 91.1132 211.591 87.2946C211.787 87.2241 212.006 87.3231 212.078 87.5192C212.15 87.7172 212.049 87.9342 211.853 88.0065C201.69 91.7395 195.393 101.182 187.607 114.111C187.534 114.231 187.407 114.296 187.279 114.296Z" fill="#313540"/>
<path d="M199.059 150C199.033 150 199.006 149.996 198.979 149.992C198.776 149.949 198.644 149.747 198.688 149.541C198.69 149.528 198.789 148.883 198.913 144.007C199.019 139.823 200.314 124.002 201.17 113.534C201.488 109.655 201.751 106.43 201.886 104.64C201.903 104.433 202.069 104.269 202.294 104.29C202.503 104.307 202.659 104.488 202.644 104.698C202.509 106.485 202.244 109.714 201.926 113.595C201.07 124.055 199.777 139.863 199.67 144.026C199.543 149.046 199.44 149.65 199.429 149.701C199.391 149.88 199.234 150 199.059 150Z" fill="#313540"/>
<path d="M242.542 150C242.334 150 242.165 149.834 242.163 149.627L241.912 132.765L236.696 116.167C236.633 115.967 236.743 115.754 236.943 115.691C237.143 115.626 237.356 115.739 237.419 115.938L242.669 132.696L242.923 149.612C242.926 149.821 242.759 149.994 242.549 149.998C242.546 150 242.544 150 242.542 150Z" fill="#313540"/>
<path d="M258.599 149.937C258.584 149.937 258.568 149.937 258.551 149.933C258.344 149.909 258.195 149.718 258.22 149.511C258.237 149.374 259.88 135.803 258.77 128.957C257.963 123.996 255.136 110.761 251.988 103.748C249.073 97.2581 244.19 92.8132 235.135 88.4025C234.946 88.3111 234.868 88.0846 234.96 87.8961C235.051 87.7076 235.281 87.6315 235.466 87.721C244.577 92.1564 249.724 96.8565 252.679 103.437C255.859 110.519 258.705 123.844 259.516 128.837C260.645 135.789 259.04 149.044 258.972 149.604C258.951 149.796 258.787 149.937 258.599 149.937Z" fill="#313540"/>
<path d="M186.469 134.01C185.928 134.01 185.387 133.973 184.847 133.903C180.44 133.326 177.497 130.233 173.985 122.485C169.802 113.258 166.738 100.984 166.707 100.86L166.616 100.494L181.312 96.7404L187.634 113.784C187.706 113.98 187.607 114.199 187.409 114.271C187.211 114.345 186.994 114.244 186.922 114.046L180.838 97.6446L167.535 101.043C168.078 103.148 170.926 113.902 174.676 122.173C178.104 129.734 180.79 132.607 184.944 133.149C189.985 133.806 195.008 131.186 200.302 125.135C200.441 124.977 200.681 124.962 200.837 125.099C200.995 125.236 201.012 125.476 200.873 125.634C195.958 131.257 191.228 134.01 186.469 134.01Z" fill="#313540"/>
<path d="M231.242 64.8642C231.204 64.8642 231.166 64.8585 231.128 64.8471C230.928 64.7842 230.817 64.571 230.88 64.3712C230.894 64.3274 232.268 59.8634 231.213 54.6855C230.928 53.2825 229.028 46.2505 219.668 45.5405C213.494 45.3654 209.196 46.755 206.925 49.658C204.229 53.1055 205.412 57.5086 205.423 57.5524C206.095 59.9662 208.006 60.9275 208.025 60.9351C208.214 61.0284 208.292 61.2549 208.2 61.4434C208.107 61.6337 207.879 61.708 207.692 61.6185C207.601 61.5747 205.455 60.4954 204.692 57.7561C204.639 57.5619 203.398 52.9361 206.325 49.1916C208.752 46.0887 213.262 44.6058 219.704 44.7828C229.628 45.5367 231.651 53.0389 231.956 54.5351C233.05 59.9148 231.661 64.413 231.602 64.6015C231.552 64.7614 231.402 64.8642 231.242 64.8642Z" fill="#313540"/>
<path d="M225.59 106.348L218.238 94.0505L230.448 84.3135L235.925 87.5268L225.59 106.348ZM219.228 94.2295L225.562 104.823L234.903 87.8085L230.511 85.2329L219.228 94.2295Z" fill="#313540"/>
<path d="M212.097 103.123L211.429 87.1404L215.318 84.5096L219.08 94.1686L212.097 103.123ZM212.204 87.5306L212.769 101.025L218.218 94.0391L214.959 85.6689L212.204 87.5306Z" fill="#313540"/>
<path d="M39.0346 103.951C38.8252 103.951 38.6558 103.782 38.6558 103.572V58.902C38.6558 58.6926 38.8252 58.5231 39.0346 58.5231C39.244 58.5231 39.4134 58.6926 39.4134 58.902V103.572C39.4134 103.782 39.244 103.951 39.0346 103.951Z" fill="#313540"/>
<path d="M282.794 95.1356V86.1029C282.794 82.2176 279.644 79.0671 275.758 79.0671H248.184C244.299 79.0671 241.148 82.2176 241.148 86.1029V98.0538C241.148 101.939 244.299 105.09 248.184 105.09H274.601C276.048 109.346 279.368 111.507 282.718 111.507C287.239 111.507 290.905 107.84 290.905 103.319C290.904 98.8229 287.279 95.1775 282.794 95.1356Z" fill="white"/>
<path d="M275.758 105.09H248.184C244.299 105.09 241.148 101.939 241.148 98.0538V86.1029C241.148 82.2176 244.299 79.0671 248.184 79.0671H275.758C279.644 79.0671 282.794 82.2176 282.794 86.1029V99.571C282.794 103.458 279.644 105.09 275.758 105.09Z" fill="white"/>
<path d="M275.758 105.468H248.184C244.095 105.468 240.77 102.141 240.77 98.0519V86.101C240.77 82.012 244.095 78.6844 248.184 78.6844H275.758C279.847 78.6844 283.175 82.012 283.175 86.101V98.0519C283.175 102.143 279.847 105.468 275.758 105.468ZM248.184 79.4459C244.514 79.4459 241.527 82.4327 241.527 86.1029V98.0538C241.527 101.724 244.514 104.711 248.184 104.711H275.758C279.428 104.711 282.415 101.724 282.415 98.0538V86.1029C282.415 82.4327 279.428 79.4459 275.758 79.4459H248.184Z" fill="#313540"/>
<path d="M271.45 86.8834H252.492C252.283 86.8834 252.113 86.714 252.113 86.5046C252.113 86.2952 252.283 86.1257 252.492 86.1257H271.45C271.66 86.1257 271.829 86.2952 271.829 86.5046C271.829 86.7121 271.66 86.8834 271.45 86.8834Z" fill="#313540"/>
<path d="M271.45 92.4572H252.492C252.283 92.4572 252.113 92.2877 252.113 92.0783C252.113 91.869 252.283 91.6995 252.492 91.6995H271.45C271.66 91.6995 271.829 91.869 271.829 92.0783C271.829 92.2877 271.66 92.4572 271.45 92.4572Z" fill="#313540"/>
<path d="M271.45 98.0329H252.492C252.283 98.0329 252.113 97.8635 252.113 97.6541C252.113 97.4447 252.283 97.2753 252.492 97.2753H271.45C271.66 97.2753 271.829 97.4447 271.829 97.6541C271.829 97.8616 271.66 98.0329 271.45 98.0329Z" fill="#313540"/>
<path d="M284.558 111.292C288.963 110.271 291.707 105.873 290.687 101.468C289.667 97.0631 285.269 94.3189 280.864 95.3391C276.459 96.3592 273.715 100.757 274.735 105.162C275.755 109.568 280.153 112.312 284.558 111.292Z" fill="white"/>
<path d="M282.716 111.886C277.993 111.886 274.15 108.042 274.15 103.319C274.15 98.5964 277.993 94.753 282.716 94.753C287.439 94.753 291.283 98.5964 291.283 103.319C291.284 108.042 287.441 111.886 282.716 111.886ZM282.716 95.5106C278.412 95.5106 274.909 99.0133 274.909 103.317C274.909 107.621 278.412 111.124 282.716 111.124C287.02 111.124 290.523 107.621 290.523 103.317C290.525 99.0133 287.022 95.5106 282.716 95.5106Z" fill="#313540"/>
<path d="M282.716 105.09C281.74 105.09 280.946 104.296 280.946 103.319C280.946 102.343 281.74 101.549 282.716 101.549C283.693 101.549 284.487 102.343 284.487 103.319C284.488 104.296 283.693 105.09 282.716 105.09ZM282.716 102.306C282.158 102.306 281.703 102.76 281.703 103.319C281.703 103.877 282.156 104.332 282.716 104.332C283.276 104.332 283.729 103.879 283.729 103.319C283.729 102.76 283.276 102.306 282.716 102.306Z" fill="#313540"/>
<path d="M278.25 105.09C277.273 105.09 276.479 104.296 276.479 103.319C276.479 102.343 277.273 101.549 278.25 101.549C279.226 101.549 280.02 102.343 280.02 103.319C280.02 104.296 279.226 105.09 278.25 105.09ZM278.25 102.307C277.692 102.307 277.237 102.76 277.237 103.319C277.237 103.877 277.69 104.332 278.25 104.332C278.808 104.332 279.261 103.879 279.261 103.319C279.261 102.76 278.808 102.307 278.25 102.307Z" fill="#313540"/>
<path d="M287.184 105.09C286.207 105.09 285.414 104.296 285.414 103.319C285.414 102.343 286.207 101.549 287.184 101.549C288.16 101.549 288.954 102.343 288.954 103.319C288.954 104.296 288.16 105.09 287.184 105.09ZM287.184 102.306C286.626 102.306 286.171 102.76 286.171 103.319C286.171 103.877 286.624 104.332 287.184 104.332C287.742 104.332 288.197 103.879 288.197 103.319C288.195 102.76 287.742 102.306 287.184 102.306Z" fill="#313540"/>
<path d="M285.44 150H26.1132C25.9038 150 25.7344 149.831 25.7344 149.621C25.7344 149.412 25.9038 149.242 26.1132 149.242H285.44C285.65 149.242 285.819 149.412 285.819 149.621C285.819 149.831 285.65 150 285.44 150Z" fill="#313540"/>
</g>
<defs>
<clipPath id="clip0_3758_3089">
<rect width="300" height="150" fill="white"/>
</clipPath>
</defs>
</svg>
