<svg width="176" height="44" viewBox="0 0 176 44" fill="none" xmlns="http://www.w3.org/2000/svg">
<g clip-path="url(#clip0_755_15809)">
<path d="M39.4588 2.51614C39.7132 2.60574 39.9349 2.76962 40.0951 2.98659C40.2554 3.20355 40.3469 3.46361 40.3578 3.73314C40.496 5.17248 40.5549 6.61834 40.5343 8.06415C40.5191 8.72741 40.5038 9.39067 40.4597 10.0539C40.2102 9.95049 39.9744 9.84704 39.7234 9.74968C39.0906 9.5002 38.4715 9.26442 37.8371 9.04232C37.8523 8.7046 37.8676 8.38056 37.8676 8.04132C37.8813 6.9658 37.8523 5.87506 37.7641 4.77064C36.7327 4.44661 35.6572 4.15149 34.5695 3.88679C33.2003 3.56276 31.8312 3.29655 30.4438 3.10488C29.6634 3.00295 28.9119 2.91319 28.1908 2.84017C27.4698 2.76715 26.7015 2.72303 25.9211 2.68805C25.3126 2.67283 24.7422 2.65914 24.1245 2.65914L23.2255 2.67284C22.9593 2.67284 22.6505 2.68805 22.3265 2.68805C21.546 2.71847 20.7946 2.77628 20.0568 2.84017C19.319 2.90406 18.5842 3.00295 17.8038 3.10488C16.4347 3.29655 15.0488 3.56124 13.6781 3.88679C12.5874 4.15149 11.5271 4.44661 10.4835 4.77064C10.304 7.19227 10.3683 9.62581 10.6752 12.0346C10.8381 13.3821 11.0742 14.7197 11.3826 16.0416C11.5591 16.7931 11.7659 17.5446 11.9911 18.2656L12.0063 18.325L12.02 18.3843L12.0352 18.4436L12.0641 18.5014L12.0793 18.5608L12.0945 18.6201L12.1097 18.6794L12.1675 18.8407V18.8559L12.1827 18.9137L12.2862 19.1936L12.2999 19.2529L12.3897 19.4887L12.4033 19.5329C12.8584 20.8521 13.385 22.1456 13.9809 23.4075L14.0098 23.4516L14.025 23.4972L14.0387 23.5261L14.0691 23.5703L14.0828 23.6144L14.098 23.6585L14.1269 23.6874C14.349 24.1437 14.5833 24.6001 14.8206 25.0565C14.9971 25.3516 15.1583 25.665 15.321 25.9404C15.5127 26.2801 15.6897 26.5747 15.852 26.8242C16.3525 27.635 16.8819 28.4306 17.4432 29.1974C18.0046 29.9641 18.5766 30.7003 19.2109 31.4366C19.4472 31.7165 19.7124 32.0111 20.0065 32.3205C20.2865 32.6247 20.5511 32.929 20.8022 33.1891C21.4502 33.8524 22.1272 34.4867 22.8056 35.1044L23.0855 35.3402C22.8938 35.4923 22.7022 35.6444 22.4968 35.7965C21.9659 36.1936 21.4213 36.5769 20.8752 36.9603C17.9315 34.3214 15.399 31.2572 13.3617 27.8693V27.8541L13.3465 27.8404L13.3313 27.8252C13.2142 27.6335 13.1107 27.4418 13.0072 27.2806C12.8308 26.9565 12.6391 26.631 12.4778 26.3222C11.991 25.4383 11.5484 24.5256 11.1225 23.5672C10.6965 22.6088 10.3269 21.6672 9.98761 20.724C9.51373 19.3907 9.11048 18.0334 8.77968 16.6577C7.77881 12.425 7.48028 8.05659 7.8959 3.72706C7.90836 3.45713 8.00217 3.19729 8.16508 2.9817C8.328 2.76612 8.55237 2.60488 8.80865 2.51919C10.2082 2.0476 11.6381 1.63534 13.0818 1.28089C14.4966 0.956863 15.9539 0.672392 17.4432 0.456375C18.2038 0.35293 19.0041 0.264699 19.8438 0.191679C20.6546 0.117138 21.4502 0.0593291 22.2306 0.0289041C22.5258 0.0289041 22.8391 0.0136953 23.1738 0.0136953L24.1322 0L25.0891 0.0136953C25.4283 0.0136953 25.7523 0.0289041 26.0322 0.0289041C26.8278 0.0593291 27.6234 0.117138 28.4343 0.191679C29.274 0.264699 30.0696 0.35293 30.8211 0.456375C32.3226 0.676956 33.7815 0.956863 35.1962 1.28089C36.6262 1.63534 38.0546 2.04152 39.4694 2.51919L39.4588 2.51614ZM30.8241 29.1989C31.355 28.4474 31.889 27.6776 32.3712 26.885C32.5377 26.5862 32.8107 26.361 33.1358 26.2544C33.4609 26.1478 33.8142 26.1677 34.1253 26.31C36.6854 27.5337 39.0095 29.1997 40.9907 31.2313C41.2224 31.4449 41.3716 31.7334 41.4119 32.0461C41.4522 32.3587 41.3812 32.6756 41.2113 32.9411C40.799 33.5892 40.3426 34.2661 39.8863 34.9294C39.4299 35.5927 38.9278 36.2407 38.4426 36.8599C38.0881 37.3163 37.7047 37.7878 37.2925 38.2594C36.9396 38.6717 36.541 39.1281 36.0999 39.6149C35.4807 40.2933 34.8829 40.911 34.2744 41.5149H34.2591C33.6704 42.1052 33.0422 42.6802 32.388 43.2537C32.195 43.4417 31.9502 43.5675 31.685 43.615C31.4198 43.6624 31.1464 43.6293 30.9002 43.5199C28.9609 42.6297 27.0938 41.5901 25.3157 40.4105C25.5515 40.234 25.7873 40.0576 26.0231 39.8659C26.5235 39.4673 27.0256 39.0703 27.4957 38.6489C28.6973 39.4126 29.9422 40.106 31.2242 40.7254C31.6212 40.3572 32.0046 39.9891 32.4032 39.6057C33.0208 38.9972 33.5958 38.4131 34.1268 37.8228C34.4797 37.4547 34.8478 37.0135 35.2616 36.5419C35.6145 36.1145 35.9827 35.6718 36.3372 35.2017C36.8225 34.6115 37.2651 34.0075 37.6926 33.3884C37.9284 33.0841 38.149 32.7403 38.3695 32.4163C37.7064 31.7805 36.9971 31.1948 36.2474 30.6638C35.5373 30.1489 34.7944 29.6809 34.0234 29.2628C33.6841 29.7785 33.3311 30.2805 32.9767 30.7658C32.3591 31.6207 31.7247 32.4163 31.0767 33.183C30.7816 33.5207 30.5016 33.8311 30.2369 34.1262C30.1183 34.2783 29.9859 34.4061 29.8536 34.5521L29.8384 34.5674L29.8247 34.5826L29.8095 34.5963L29.7942 34.6115L29.7806 34.6267L29.7653 34.6419L29.7501 34.6556L29.7212 34.686V34.6997C28.3144 36.1815 26.803 37.5602 25.1986 38.8253C22.774 40.687 20.1438 42.2642 17.3596 43.526C17.1065 43.6395 16.8245 43.6721 16.5522 43.6193C16.2799 43.5664 16.0306 43.4308 15.8383 43.2309C15.1888 42.6711 14.5848 42.096 13.9809 41.521C13.3724 40.9323 12.773 40.304 12.1554 39.6209C11.699 39.1341 11.3019 38.6778 10.9475 38.2655C10.5504 37.7939 10.1671 37.3223 9.79894 36.866C9.31214 36.2331 8.84057 35.5988 8.36898 34.9355C7.8974 34.2722 7.45624 33.5953 7.04398 32.9472C6.71843 32.4315 6.38066 31.8823 6.04143 31.3119C5.73718 30.7521 5.42228 30.1922 5.12868 29.6385C4.74684 28.9311 4.39242 28.2085 4.05318 27.4875C3.71394 26.7664 3.42035 26.0423 3.11153 25.2908C2.55171 23.9217 2.06492 22.5221 1.63745 21.0921C1.20998 19.6622 0.857051 18.22 0.572577 16.7611C0.517199 16.4924 0.547078 16.2131 0.658073 15.9622C0.769069 15.7113 0.955616 15.5013 1.1917 15.3616C2.90701 14.1423 4.71466 13.0585 6.59823 12.1198C6.67125 12.8272 6.76098 13.5194 6.87811 14.2115C6.90702 14.4473 6.95114 14.6831 6.99525 14.9189C5.74482 15.5729 4.53479 16.3014 3.37166 17.1004C3.60746 18.2048 3.88735 19.2803 4.19617 20.3269C4.59474 21.6824 5.06638 23.0074 5.58208 24.2822C5.86199 24.9744 6.15558 25.6665 6.4796 26.3587C6.80363 27.0509 7.12915 27.7278 7.48208 28.3774C7.76199 28.9235 8.05715 29.4423 8.35227 29.9686C8.64587 30.4554 8.96076 30.9711 9.29391 31.5157C9.7077 32.1638 10.1199 32.7981 10.5474 33.3869C10.9749 33.9756 11.4313 34.6039 11.9028 35.2002C12.271 35.6703 12.6239 36.1129 12.9921 36.5404C13.3906 37.012 13.774 37.4532 14.1117 37.8213C14.6578 38.4116 15.2314 39.0003 15.8505 39.6042C16.2339 39.9876 16.6324 40.3557 17.0143 40.7102C19.2311 39.6438 21.3341 38.3553 23.2909 36.8644C26.1589 34.6896 28.6951 32.1089 30.8196 29.2034L30.8241 29.1989ZM47.0468 15.3555C47.2821 15.4968 47.4687 15.7064 47.5817 15.9564C47.6948 16.2065 47.729 16.4851 47.6796 16.755C47.3845 18.2139 47.0315 19.6576 46.6041 21.086C46.1766 22.5145 45.6913 23.9156 45.1452 25.2847C45.0898 25.4213 45.0099 25.5466 44.9094 25.6544C44.6782 25.9223 44.3509 26.0886 43.9982 26.117C43.6454 26.1455 43.2957 26.0339 43.0246 25.8065C42.029 24.9399 40.9754 24.1424 39.871 23.4196C38.7859 22.7098 37.6534 22.075 36.4817 21.5196C36.1743 21.381 35.9299 21.1324 35.7965 20.8228C35.6631 20.5132 35.6503 20.1648 35.7606 19.8462C36.2013 18.6064 36.57 17.3422 36.865 16.0598C36.9974 15.5593 37.1008 15.0573 37.2042 14.5386C37.5435 14.6709 37.8676 14.8048 38.2068 14.9508C38.7073 15.1729 39.2077 15.4072 39.7082 15.6445C39.6352 15.9975 39.5561 16.3367 39.4725 16.6759C39.2382 17.6632 38.972 18.6536 38.6632 19.6226C39.5759 20.0942 40.4749 20.6236 41.3436 21.1834C42.0068 21.6261 42.6701 22.0961 43.3045 22.5829C43.5692 21.8467 43.8202 21.0952 44.0407 20.33C44.3648 19.2834 44.6295 18.2002 44.8805 17.1034C42.9471 15.7814 40.8892 14.6513 38.7362 13.7293C37.4101 13.1562 36.0525 12.6589 34.6699 12.24C33.4065 11.8584 32.1225 11.5486 30.8241 11.312C29.9114 11.1508 28.9682 11.0184 28.0098 10.915C27.0514 10.8115 26.1098 10.7522 25.1666 10.7233L24.6372 10.7081H23.6058L23.0901 10.7233C22.1469 10.7522 21.1885 10.8115 20.2454 10.915C19.3022 11.0184 18.3453 11.1508 17.4174 11.312C16.135 11.5478 14.854 11.8718 13.5716 12.24C13.0848 12.3921 12.5996 12.5442 12.1128 12.7116C12.0686 12.4317 12.0245 12.167 11.9956 11.887C11.9074 11.2542 11.8435 10.6351 11.804 10.0007C15.7791 8.68644 19.9394 8.01874 24.1261 8.02307C29.3049 8.03017 34.4332 9.04066 39.2276 10.9986C41.9926 12.1508 44.6174 13.614 47.0513 15.3601L47.0468 15.3555ZM22.4999 27.0098C22.2793 26.7299 22.0876 26.4789 21.9112 26.2583C20.5092 24.339 19.3188 22.2738 18.3606 20.0988C18.2282 19.8051 18.0944 19.51 17.9772 19.2149C17.8601 18.9198 17.7703 18.6703 17.673 18.3904C17.6308 18.2931 17.6012 18.1909 17.5847 18.0861C17.5533 17.9129 17.5567 17.7351 17.5948 17.5632C17.6328 17.3912 17.7046 17.2286 17.8062 17.0848C17.9077 16.9409 18.0368 16.8187 18.1861 16.7252C18.3353 16.6318 18.5017 16.569 18.6755 16.5405C18.9554 16.4812 19.2839 16.4371 19.6186 16.3884L20.5755 16.2545C21.1657 16.1967 21.7545 16.1526 22.3584 16.1024C22.9623 16.0522 23.5754 16.0583 24.1276 16.0583C24.6798 16.0583 25.2761 16.072 25.909 16.1024C26.5175 16.1465 27.1032 16.1907 27.6782 16.2545L28.635 16.3884C28.9895 16.4325 29.2983 16.4767 29.5935 16.5405C29.6687 16.5527 29.7425 16.572 29.814 16.5984C30.1474 16.7187 30.4198 16.966 30.5717 17.2863C30.7235 17.6066 30.7426 17.9739 30.6248 18.3082C30.5062 18.6125 30.389 18.9259 30.2704 19.221C30.1517 19.5161 30.0346 19.8112 29.9022 20.1048C29.4236 21.189 28.8874 22.2467 28.2958 23.2736C27.7015 24.3078 27.0473 25.3065 26.3364 26.2644C26.1154 26.5575 25.9242 26.808 25.7629 27.0159C25.5119 27.3201 25.3202 27.5757 25.1544 27.7522C25.1025 27.818 25.0428 27.8773 24.9765 27.9286C24.8427 28.0414 24.6877 28.1263 24.5208 28.1785C24.3538 28.2308 24.1781 28.2492 24.0039 28.2328C23.8297 28.2163 23.6605 28.1654 23.5062 28.0829C23.352 28.0003 23.2157 27.8879 23.1053 27.7522C22.8848 27.5012 22.6931 27.2654 22.4968 27.0159L22.4999 27.0098Z" fill="#8896AB"/>
</g>
<path d="M61.9898 19.1521C62.9324 17.6859 64.5906 16.9528 66.9644 16.9528V20.0684C66.6851 20.0161 66.432 19.9899 66.2051 19.9899C64.9309 19.9899 63.936 20.3652 63.2204 21.1157C62.5047 21.8488 62.1469 22.9135 62.1469 24.3099V31.091H58.8742V17.1099H61.9898V19.1521Z" fill="#8896AB"/>
<path d="M82.7561 24.179C82.7561 24.4059 82.7386 24.7288 82.7037 25.1477H71.7336C71.9256 26.1775 72.423 26.9979 73.2259 27.6088C74.0463 28.2022 75.0586 28.499 76.263 28.499C77.799 28.499 79.0645 27.9928 80.0594 26.9804L81.8136 28.9964C81.1852 29.747 80.391 30.3142 79.431 30.6982C78.471 31.0822 77.3888 31.2742 76.1845 31.2742C74.6485 31.2742 73.2957 30.9688 72.1263 30.3579C70.9568 29.747 70.0492 28.9004 69.4034 27.8182C68.775 26.7186 68.4608 25.4793 68.4608 24.1004C68.4608 22.739 68.7663 21.5172 69.3772 20.435C70.0056 19.3353 70.8696 18.4801 71.9692 17.8692C73.0688 17.2582 74.3081 16.9528 75.687 16.9528C77.0485 16.9528 78.2616 17.2582 79.3263 17.8692C80.4085 18.4626 81.2463 19.3092 81.8397 20.4088C82.4506 21.491 82.7561 22.7477 82.7561 24.179ZM75.687 19.571C74.6397 19.571 73.7496 19.8852 73.0165 20.5135C72.3008 21.1244 71.8645 21.9448 71.7074 22.9746H79.6405C79.5008 21.9622 79.0732 21.1419 78.3576 20.5135C77.6419 19.8852 76.7517 19.571 75.687 19.571Z" fill="#8896AB"/>
<path d="M90.2198 31.2742C89.0852 31.2742 87.9769 31.1259 86.8947 30.8292C85.8125 30.5324 84.9485 30.1572 84.3027 29.7033L85.5594 27.2161C86.1878 27.635 86.9383 27.9753 87.811 28.2372C88.7012 28.4815 89.5739 28.6037 90.4292 28.6037C92.3841 28.6037 93.3616 28.0888 93.3616 27.059C93.3616 26.5702 93.1085 26.2299 92.6023 26.0379C92.1136 25.8459 91.3194 25.6626 90.2198 25.4881C89.0678 25.3135 88.1252 25.1128 87.3921 24.8859C86.6765 24.659 86.0481 24.2662 85.507 23.7077C84.9834 23.1317 84.7216 22.3375 84.7216 21.3252C84.7216 19.9986 85.2714 18.9426 86.371 18.1572C87.4881 17.3542 88.9892 16.9528 90.8743 16.9528C91.8343 16.9528 92.7943 17.0662 93.7543 17.2932C94.7143 17.5026 95.4998 17.7906 96.1107 18.1572L94.8539 20.6444C93.667 19.9462 92.3318 19.5972 90.8481 19.5972C89.8881 19.5972 89.155 19.7455 88.6489 20.0422C88.1601 20.3215 87.9158 20.6968 87.9158 21.1681C87.9158 21.6917 88.1776 22.067 88.7012 22.2939C89.2423 22.5033 90.0714 22.7041 91.1885 22.8961C92.3056 23.0706 93.2219 23.2713 93.9376 23.4982C94.6532 23.7252 95.2641 24.1092 95.7703 24.6502C96.2939 25.1913 96.5558 25.9593 96.5558 26.9542C96.5558 28.2633 95.9885 29.3106 94.8539 30.0961C93.7194 30.8815 92.1747 31.2742 90.2198 31.2742Z" fill="#8896AB"/>
<path d="M112.517 24.179C112.517 24.4059 112.5 24.7288 112.465 25.1477H101.495C101.687 26.1775 102.184 26.9979 102.987 27.6088C103.808 28.2022 104.82 28.499 106.024 28.499C107.56 28.499 108.826 27.9928 109.821 26.9804L111.575 28.9964C110.947 29.747 110.152 30.3142 109.192 30.6982C108.232 31.0822 107.15 31.2742 105.946 31.2742C104.41 31.2742 103.057 30.9688 101.888 30.3579C100.718 29.747 99.8106 28.9004 99.1647 27.8182C98.5364 26.7186 98.2222 25.4793 98.2222 24.1004C98.2222 22.739 98.5276 21.5172 99.1386 20.435C99.7669 19.3353 100.631 18.4801 101.731 17.8692C102.83 17.2582 104.069 16.9528 105.448 16.9528C106.81 16.9528 108.023 17.2582 109.088 17.8692C110.17 18.4626 111.008 19.3092 111.601 20.4088C112.212 21.491 112.517 22.7477 112.517 24.179ZM105.448 19.571C104.401 19.571 103.511 19.8852 102.778 20.5135C102.062 21.1244 101.626 21.9448 101.469 22.9746H109.402C109.262 21.9622 108.835 21.1419 108.119 20.5135C107.403 19.8852 106.513 19.571 105.448 19.571Z" fill="#8896AB"/>
<path d="M122.076 31.2742C120.627 31.2742 119.327 30.9688 118.175 30.3579C117.023 29.747 116.124 28.9004 115.478 27.8182C114.832 26.7186 114.509 25.4793 114.509 24.1004C114.509 22.7215 114.832 21.491 115.478 20.4088C116.124 19.3266 117.014 18.4801 118.148 17.8692C119.3 17.2582 120.609 16.9528 122.076 16.9528C123.455 16.9528 124.659 17.2321 125.689 17.7906C126.736 18.3492 127.521 19.1521 128.045 20.1993L125.532 21.6655C125.13 21.0197 124.624 20.5397 124.013 20.2255C123.42 19.8939 122.765 19.7281 122.049 19.7281C120.828 19.7281 119.815 20.1295 119.012 20.9324C118.209 21.7179 117.808 22.7739 117.808 24.1004C117.808 25.427 118.201 26.4917 118.986 27.2946C119.789 28.0801 120.81 28.4728 122.049 28.4728C122.765 28.4728 123.42 28.3157 124.013 28.0015C124.624 27.6699 125.13 27.1812 125.532 26.5353L128.045 28.0015C127.504 29.0488 126.71 29.8604 125.663 30.4364C124.633 30.995 123.437 31.2742 122.076 31.2742Z" fill="#8896AB"/>
<path d="M144.41 17.1099V31.091H141.295V29.3106C140.771 29.939 140.116 30.4277 139.331 30.7768C138.545 31.1084 137.699 31.2742 136.791 31.2742C134.924 31.2742 133.449 30.7593 132.367 29.7295C131.302 28.6822 130.769 27.1375 130.769 25.0953V17.1099H134.042V24.6502C134.042 25.907 134.321 26.8495 134.88 27.4779C135.456 28.0888 136.268 28.3942 137.315 28.3942C138.484 28.3942 139.409 28.0364 140.09 27.3208C140.788 26.5877 141.137 25.5404 141.137 24.179V17.1099H144.41Z" fill="#8896AB"/>
<path d="M151.811 19.1521C152.753 17.6859 154.412 16.9528 156.785 16.9528V20.0684C156.506 20.0161 156.253 19.9899 156.026 19.9899C154.752 19.9899 153.757 20.3652 153.041 21.1157C152.326 21.8488 151.968 22.9135 151.968 24.3099V31.091H148.695V17.1099H151.811V19.1521Z" fill="#8896AB"/>
<path d="M167.312 16.9528C168.673 16.9528 169.886 17.2495 170.951 17.843C172.033 18.4364 172.88 19.2742 173.49 20.3564C174.101 21.4386 174.407 22.6866 174.407 24.1004C174.407 25.5142 174.101 26.771 173.49 27.8706C172.88 28.9528 172.033 29.7906 170.951 30.3841C169.886 30.9775 168.673 31.2742 167.312 31.2742C166.352 31.2742 165.47 31.1084 164.667 30.7768C163.882 30.4452 163.218 29.9477 162.677 29.2844V31.091H159.562V11.6641H162.834V18.8117C163.393 18.2008 164.048 17.7382 164.798 17.4241C165.566 17.1099 166.404 16.9528 167.312 16.9528ZM166.945 28.4728C168.149 28.4728 169.136 28.0713 169.904 27.2684C170.689 26.4655 171.082 25.4095 171.082 24.1004C171.082 22.7913 170.689 21.7353 169.904 20.9324C169.136 20.1295 168.149 19.7281 166.945 19.7281C166.16 19.7281 165.453 19.9113 164.824 20.2779C164.196 20.627 163.698 21.1332 163.332 21.7964C162.965 22.4597 162.782 23.2277 162.782 24.1004C162.782 24.9732 162.965 25.7412 163.332 26.4044C163.698 27.0677 164.196 27.5826 164.824 27.9492C165.453 28.2982 166.16 28.4728 166.945 28.4728Z" fill="#8896AB"/>
<defs>
<clipPath id="clip0_755_15809">
<rect width="48" height="43.6364" fill="white"/>
</clipPath>
</defs>
</svg>
