<svg width="90" height="28" viewBox="0 0 90 28" fill="none" xmlns="http://www.w3.org/2000/svg">
<path d="M7.5082 22.4918V16.9836H15.3115C18.3536 16.9836 20.8197 14.5175 20.8197 11.4754V11.0164C20.8197 7.97431 18.3536 5.5082 15.3115 5.5082H13.0164C9.97431 5.5082 7.5082 7.97431 7.5082 11.0164V16.9836H2V11.0164C2 4.9322 6.9322 0 13.0164 0H15.3115C21.3957 0 26.3279 4.9322 26.3279 11.0164V11.4754C26.3279 17.5596 21.3957 22.4918 15.3115 22.4918H7.5082Z" fill="#EC4899"/>
<path d="M7.5082 22.4922V28.0004C4.46611 28.0004 2 25.5343 2 22.4922H7.5082Z" fill="#EC4899"/>
<path d="M10.4922 14.0004V12.0496C10.4922 10.0849 12.0849 8.49219 14.0496 8.49219H14.8528C16.3739 8.49219 17.6069 9.72524 17.6069 11.2463C17.6069 12.7673 16.3739 14.0004 14.8528 14.0004H10.4922Z" fill="#EC4899"/>
<path d="M40.253 14.7695H41.3377C42.3514 14.7695 43.11 14.571 43.6133 14.174C44.1166 13.77 44.3683 13.1851 44.3683 12.4195C44.3683 11.6468 44.1556 11.0761 43.7303 10.7075C43.312 10.3388 42.6527 10.1545 41.7524 10.1545H40.253V14.7695ZM47.6966 12.3025C47.6966 13.9755 47.172 15.2551 46.1228 16.1413C45.0807 17.0274 43.5956 17.4705 41.6673 17.4705H40.253V23H36.9566V7.45355H41.9225C43.8082 7.45355 45.2402 7.86117 46.2185 8.67642C47.2039 9.48458 47.6966 10.6933 47.6966 12.3025ZM53.6196 23H50.3763V6.45398H53.6196V23ZM64.5829 23L63.9555 21.3837H63.8705C63.3246 22.0713 62.761 22.5498 62.1797 22.8192C61.6055 23.0815 60.854 23.2127 59.9254 23.2127C58.784 23.2127 57.8837 22.8866 57.2244 22.2344C56.5722 21.5822 56.2461 20.6535 56.2461 19.4483C56.2461 18.1865 56.6856 17.2578 57.5647 16.6623C58.4508 16.0597 59.7836 15.7266 61.563 15.6628L63.6259 15.599V15.0779C63.6259 13.8728 63.0091 13.2702 61.7756 13.2702C60.8257 13.2702 59.7091 13.5573 58.426 14.1315L57.352 11.941C58.7202 11.225 60.2373 10.867 61.9032 10.867C63.4983 10.867 64.7212 11.2143 65.5719 11.9091C66.4225 12.6038 66.8479 13.6601 66.8479 15.0779V23H64.5829ZM63.6259 17.4917L62.3711 17.5343C61.4283 17.5626 60.7264 17.7328 60.2656 18.0447C59.8048 18.3566 59.5745 18.8316 59.5745 19.4696C59.5745 20.3841 60.099 20.8414 61.1482 20.8414C61.8997 20.8414 62.4987 20.6251 62.9453 20.1927C63.399 19.7603 63.6259 19.1861 63.6259 18.47V17.4917ZM70.0593 8.0384C70.0593 6.98212 70.6477 6.45398 71.8245 6.45398C73.0013 6.45398 73.5897 6.98212 73.5897 8.0384C73.5897 8.54173 73.4408 8.93517 73.143 9.21874C72.8524 9.49522 72.4129 9.63345 71.8245 9.63345C70.6477 9.63345 70.0593 9.10177 70.0593 8.0384ZM73.4408 23H70.1975V11.1115H73.4408V23ZM87.8282 23H84.5849V16.0562C84.5849 15.1984 84.4325 14.5569 84.1276 14.1315C83.8228 13.6991 83.3372 13.4828 82.6708 13.4828C81.7634 13.4828 81.1077 13.7877 80.7036 14.3973C80.2995 14.9999 80.0975 16.003 80.0975 17.4067V23H76.8542V11.1115H79.3318L79.7678 12.6322H79.9486C80.3101 12.0579 80.8064 11.6255 81.4373 11.3348C82.0753 11.0371 82.7984 10.8882 83.6066 10.8882C84.989 10.8882 86.0382 11.264 86.7542 12.0154C87.4702 12.7598 87.8282 13.8373 87.8282 15.248V23Z" fill="#EC4899"/>
</svg>
