<svg width="186" height="44" viewBox="0 0 186 44" fill="none" xmlns="http://www.w3.org/2000/svg">
<g clip-path="url(#clip0_366_4435)">
<path fill-rule="evenodd" clip-rule="evenodd" d="M4.48853 40.8484L8.315 38.6545L9.8513 37.773L11.3596 36.9034L13.7261 35.5472L17.4846 33.4011L21.2471 35.5472L23.6097 36.9034L25.1178 37.773L26.6582 38.6545L30.4046 40.8165L31.5437 41.4628L32.6548 42.097L34.9091 43.3894V22.623L30.4046 20.0342V35.6748L27.356 33.9197L22.8635 31.3508L21.1507 30.3536L19.739 29.5558V3.76734H15.2342V30.1701L12.1056 31.9691L7.61716 34.5579L4.48853 36.341V20.0661L-0.00012207 22.639V43.4213L2.23813 42.1289L3.36138 41.4946L4.48853 40.8484ZM27.3521 30.3376V-0.891757H22.8596V27.7688L27.3521 30.3376ZM12.1097 28.3671V8.42244H7.62107V30.9559L12.1097 28.3671Z" fill="#28CE8C"/>
</g>
<path d="M53.9411 31.0909H57.8647L61.4814 18.6415H61.6302L65.2562 31.0909H69.1798L74.6281 12.0496H70.2304L67.0785 25.3078H66.9112L63.4432 12.0496H59.6777L56.2004 25.28H56.0424L52.8905 12.0496H48.4928L53.9411 31.0909Z" fill="#252235"/>
<path d="M76.7828 31.0909H89.6506V27.7717H80.8086V23.2252H88.9533V19.906H80.8086V15.3688H89.6134V12.0496H76.7828V31.0909Z" fill="#252235"/>
<path d="M92.8141 31.0909H105.003V27.7717H96.8399V12.0496H92.8141V31.0909Z" fill="#252235"/>
<path d="M104.124 12.0496L111.07 24.3595V31.0909H115.068V24.3595L122.013 12.0496H117.504L113.162 20.25H112.976L108.634 12.0496H104.124Z" fill="#252235"/>
<path d="M124.688 15.3688H130.518V31.0909H134.497V15.3688H140.327V12.0496H124.688V15.3688Z" fill="#252235"/>
<path d="M146.928 12.0496H142.902V31.0909H146.928V12.0496Z" fill="#252235"/>
<path d="M167.041 18.7159C166.511 14.3182 163.182 11.7893 158.775 11.7893C153.745 11.7893 149.905 15.3409 149.905 21.5702C149.905 27.781 153.68 31.3512 158.775 31.3512C163.657 31.3512 166.604 28.1064 167.041 24.6012L162.968 24.5826C162.587 26.6188 160.988 27.7903 158.84 27.7903C155.949 27.7903 153.987 25.6426 153.987 21.5702C153.987 17.6095 155.921 15.3502 158.868 15.3502C161.072 15.3502 162.662 16.624 162.968 18.7159H167.041Z" fill="#252235"/>
<path d="M180.257 17.5258H184.116C184.06 14.1322 181.271 11.7893 177.031 11.7893C172.856 11.7893 169.798 14.095 169.816 17.5537C169.807 20.3616 171.787 21.97 175.004 22.7417L177.077 23.2624C179.151 23.7645 180.304 24.3595 180.313 25.6426C180.304 27.0372 178.983 27.9855 176.938 27.9855C174.846 27.9855 173.34 27.0186 173.21 25.1126H169.314C169.416 29.2314 172.364 31.3605 176.984 31.3605C181.633 31.3605 184.367 29.1384 184.376 25.6519C184.367 22.4814 181.977 20.7986 178.667 20.0548L176.957 19.6457C175.302 19.2645 173.916 18.6508 173.944 17.2841C173.944 16.0568 175.032 15.155 177.003 15.155C178.928 15.155 180.108 16.0289 180.257 17.5258Z" fill="#252235"/>
<defs>
<clipPath id="clip0_366_4435">
<rect width="34.9091" height="43.6364" fill="white"/>
</clipPath>
</defs>
</svg>
