<svg width="24" height="24" viewBox="0 0 24 24" fill="none" xmlns="http://www.w3.org/2000/svg">
<path d="M19.2 3H4.8C3.81 3 3 3.81 3 4.8V19.2C3 20.19 3.81 21 4.8 21H19.2C20.19 21 21 20.19 21 19.2V4.8C21 3.81 20.19 3 19.2 3ZM8.4 18.3H5.7V10.2H8.4V18.3ZM7.05 8.67C6.15 8.67 5.43 7.95 5.43 7.05C5.43 6.15 6.15 5.43 7.05 5.43C7.95 5.43 8.67 6.15 8.67 7.05C8.67 7.95 7.95 8.67 7.05 8.67ZM18.3 18.3H15.6V13.53C15.6 12.81 14.97 12.18 14.25 12.18C13.53 12.18 12.9 12.81 12.9 13.53V18.3H10.2V10.2H12.9V11.28C13.35 10.56 14.34 10.02 15.15 10.02C16.86 10.02 18.3 11.46 18.3 13.17V18.3Z" fill="#67798E"/>
</svg>
