<svg width="24" height="24" viewBox="0 0 24 24" fill="none" xmlns="http://www.w3.org/2000/svg">
<path fill-rule="evenodd" clip-rule="evenodd" d="M21.8182 6.14597C21.1356 6.44843 20.4032 6.65355 19.6337 6.74512C20.4194 6.27461 21.0209 5.52831 21.3059 4.64176C20.5689 5.07749 19.7553 5.39388 18.8885 5.5654C18.1943 4.82488 17.207 4.36364 16.1118 4.36364C14.0108 4.36364 12.3073 6.06719 12.3073 8.16706C12.3073 8.46488 12.3409 8.75576 12.4058 9.03391C9.24437 8.87512 6.44107 7.36049 4.56486 5.05894C4.23689 5.61985 4.05031 6.27343 4.05031 6.97109C4.05031 8.29106 4.72246 9.45573 5.74228 10.1371C5.1188 10.1163 4.5324 9.94476 4.01904 9.65967V9.70719C4.01904 11.5498 5.33089 13.0876 7.07034 13.4376C6.75164 13.5234 6.41558 13.5709 6.06792 13.5709C5.82225 13.5709 5.58468 13.5465 5.35174 13.5002C5.83613 15.0125 7.24071 16.1123 8.90486 16.1424C7.60343 17.1622 5.96246 17.7683 4.18013 17.7683C3.87304 17.7683 3.57055 17.7498 3.27274 17.7162C4.95658 18.7974 6.95564 19.4279 9.10419 19.4279C16.1026 19.4279 19.9281 13.6312 19.9281 8.60397L19.9153 8.11146C20.6628 7.57834 21.3094 6.90852 21.8182 6.14597Z" fill="#67798E"/>
<mask id="mask0" mask-type="alpha" maskUnits="userSpaceOnUse" x="3" y="4" width="19" height="16">
<path fill-rule="evenodd" clip-rule="evenodd" d="M21.8182 6.14597C21.1356 6.44843 20.4032 6.65355 19.6337 6.74512C20.4194 6.27461 21.0209 5.52831 21.3059 4.64176C20.5689 5.07749 19.7553 5.39388 18.8885 5.5654C18.1943 4.82488 17.207 4.36364 16.1118 4.36364C14.0108 4.36364 12.3073 6.06719 12.3073 8.16706C12.3073 8.46488 12.3409 8.75576 12.4058 9.03391C9.24437 8.87512 6.44107 7.36049 4.56486 5.05894C4.23689 5.61985 4.05031 6.27343 4.05031 6.97109C4.05031 8.29106 4.72246 9.45573 5.74228 10.1371C5.1188 10.1163 4.5324 9.94476 4.01904 9.65967V9.70719C4.01904 11.5498 5.33089 13.0876 7.07034 13.4376C6.75164 13.5234 6.41558 13.5709 6.06792 13.5709C5.82225 13.5709 5.58468 13.5465 5.35174 13.5002C5.83613 15.0125 7.24071 16.1123 8.90486 16.1424C7.60343 17.1622 5.96246 17.7683 4.18013 17.7683C3.87304 17.7683 3.57055 17.7498 3.27274 17.7162C4.95658 18.7974 6.95564 19.4279 9.10419 19.4279C16.1026 19.4279 19.9281 13.6312 19.9281 8.60397L19.9153 8.11146C20.6628 7.57834 21.3094 6.90852 21.8182 6.14597Z" fill="white"/>
</mask>
<g mask="url(#mask0)">
</g>
</svg>
