<svg width="24" height="24" viewBox="0 0 24 24" fill="none" xmlns="http://www.w3.org/2000/svg">
<path fill-rule="evenodd" clip-rule="evenodd" d="M13.6348 20.7273V12.766H16.3582L16.7668 9.66246H13.6348V7.68128C13.6348 6.78301 13.8881 6.17085 15.2029 6.17085L16.877 6.17017V3.39424C16.5875 3.35733 15.5937 3.27273 14.437 3.27273C12.0216 3.27273 10.368 4.71881 10.368 7.37391V9.66246H7.63635V12.766H10.368V20.7273H13.6348Z" fill="#67798E"/>
<mask id="mask0" mask-type="alpha" maskUnits="userSpaceOnUse" x="7" y="3" width="10" height="18">
<path fill-rule="evenodd" clip-rule="evenodd" d="M13.6348 20.7273V12.766H16.3582L16.7668 9.66246H13.6348V7.68128C13.6348 6.78301 13.8881 6.17085 15.2029 6.17085L16.877 6.17017V3.39424C16.5875 3.35733 15.5937 3.27273 14.437 3.27273C12.0216 3.27273 10.368 4.71881 10.368 7.37391V9.66246H7.63635V12.766H10.368V20.7273H13.6348Z" fill="white"/>
</mask>
<g mask="url(#mask0)">
</g>
</svg>
