<svg width="24" height="24" viewBox="0 0 24 24" fill="none" xmlns="http://www.w3.org/2000/svg">
<path fill-rule="evenodd" clip-rule="evenodd" d="M7.60045 2.18182H16.399C19.3871 2.18182 21.8181 4.61282 21.818 7.60075V16.3993C21.818 19.3872 19.3871 21.8182 16.399 21.8182H7.60045C4.61252 21.8182 2.18164 19.3873 2.18164 16.3993V7.60075C2.18164 4.61282 4.61252 2.18182 7.60045 2.18182ZM16.3991 20.076C18.4265 20.076 20.0759 18.4266 20.0759 16.3993H20.0758V7.60075C20.0758 5.57349 18.4263 3.92406 16.399 3.92406H7.60045C5.57319 3.92406 3.92387 5.57349 3.92387 7.60075V16.3993C3.92387 18.4266 5.57319 20.0761 7.60045 20.076H16.3991ZM6.85696 12.0001C6.85696 9.16424 9.16401 6.85715 11.9998 6.85715C14.8356 6.85715 17.1427 9.16424 17.1427 12.0001C17.1427 14.8359 14.8356 17.1429 11.9998 17.1429C9.16401 17.1429 6.85696 14.8359 6.85696 12.0001ZM8.6278 12C8.6278 13.8593 10.1406 15.3719 11.9998 15.3719C13.8591 15.3719 15.3718 13.8593 15.3718 12C15.3718 10.1406 13.8592 8.62791 11.9998 8.62791C10.1404 8.62791 8.6278 10.1406 8.6278 12Z" fill="#F1F5FB"/>
<mask id="mask0" mask-type="alpha" maskUnits="userSpaceOnUse" x="2" y="2" width="20" height="20">
<path fill-rule="evenodd" clip-rule="evenodd" d="M7.60045 2.18182H16.399C19.3871 2.18182 21.8181 4.61282 21.818 7.60075V16.3993C21.818 19.3872 19.3871 21.8182 16.399 21.8182H7.60045C4.61252 21.8182 2.18164 19.3873 2.18164 16.3993V7.60075C2.18164 4.61282 4.61252 2.18182 7.60045 2.18182ZM16.3991 20.076C18.4265 20.076 20.0759 18.4266 20.0759 16.3993H20.0758V7.60075C20.0758 5.57349 18.4263 3.92406 16.399 3.92406H7.60045C5.57319 3.92406 3.92387 5.57349 3.92387 7.60075V16.3993C3.92387 18.4266 5.57319 20.0761 7.60045 20.076H16.3991ZM6.85696 12.0001C6.85696 9.16424 9.16401 6.85715 11.9998 6.85715C14.8356 6.85715 17.1427 9.16424 17.1427 12.0001C17.1427 14.8359 14.8356 17.1429 11.9998 17.1429C9.16401 17.1429 6.85696 14.8359 6.85696 12.0001ZM8.6278 12C8.6278 13.8593 10.1406 15.3719 11.9998 15.3719C13.8591 15.3719 15.3718 13.8593 15.3718 12C15.3718 10.1406 13.8592 8.62791 11.9998 8.62791C10.1404 8.62791 8.6278 10.1406 8.6278 12Z" fill="white"/>
</mask>
<g mask="url(#mask0)">
</g>
</svg>
