<svg width="24" height="24" viewBox="0 0 24 24" fill="none" xmlns="http://www.w3.org/2000/svg">
<path fill-rule="evenodd" clip-rule="evenodd" d="M7.60063 2.18182H16.3991C19.3873 2.18182 21.8183 4.61281 21.8182 7.60074V16.3993C21.8182 19.3872 19.3873 21.8182 16.3991 21.8182H7.60063C4.6127 21.8182 2.18182 19.3873 2.18182 16.3993V7.60074C2.18182 4.61281 4.6127 2.18182 7.60063 2.18182ZM16.3993 20.0759C18.4266 20.0759 20.0761 18.4266 20.0761 16.3993H20.076V7.60074C20.076 5.57348 18.4265 3.92405 16.3991 3.92405H7.60063C5.57337 3.92405 3.92406 5.57348 3.92406 7.60074V16.3993C3.92406 18.4266 5.57337 20.0761 7.60063 20.0759H16.3993ZM6.85715 12.0001C6.85715 9.16424 9.16419 6.85714 12 6.85714C14.8358 6.85714 17.1429 9.16424 17.1429 12.0001C17.1429 14.8359 14.8358 17.1429 12 17.1429C9.16419 17.1429 6.85715 14.8359 6.85715 12.0001ZM8.62799 12C8.62799 13.8593 10.1407 15.3719 12 15.3719C13.8593 15.3719 15.372 13.8593 15.372 12C15.372 10.1406 13.8594 8.6279 12 8.6279C10.1406 8.6279 8.62799 10.1406 8.62799 12Z" fill="#67798E"/>
<mask id="mask0" mask-type="alpha" maskUnits="userSpaceOnUse" x="2" y="2" width="20" height="20">
<path fill-rule="evenodd" clip-rule="evenodd" d="M7.60063 2.18182H16.3991C19.3873 2.18182 21.8183 4.61281 21.8182 7.60074V16.3993C21.8182 19.3872 19.3873 21.8182 16.3991 21.8182H7.60063C4.6127 21.8182 2.18182 19.3873 2.18182 16.3993V7.60074C2.18182 4.61281 4.6127 2.18182 7.60063 2.18182ZM16.3993 20.0759C18.4266 20.0759 20.0761 18.4266 20.0761 16.3993H20.076V7.60074C20.076 5.57348 18.4265 3.92405 16.3991 3.92405H7.60063C5.57337 3.92405 3.92406 5.57348 3.92406 7.60074V16.3993C3.92406 18.4266 5.57337 20.0761 7.60063 20.0759H16.3993ZM6.85715 12.0001C6.85715 9.16424 9.16419 6.85714 12 6.85714C14.8358 6.85714 17.1429 9.16424 17.1429 12.0001C17.1429 14.8359 14.8358 17.1429 12 17.1429C9.16419 17.1429 6.85715 14.8359 6.85715 12.0001ZM8.62799 12C8.62799 13.8593 10.1407 15.3719 12 15.3719C13.8593 15.3719 15.372 13.8593 15.372 12C15.372 10.1406 13.8594 8.6279 12 8.6279C10.1406 8.6279 8.62799 10.1406 8.62799 12Z" fill="white"/>
</mask>
<g mask="url(#mask0)">
</g>
</svg>
