<svg width="24" height="24" viewBox="0 0 24 24" fill="none" xmlns="http://www.w3.org/2000/svg">
<path fill-rule="evenodd" clip-rule="evenodd" d="M21.8184 6.14597C21.1358 6.44842 20.4034 6.65354 19.6339 6.74512C20.4196 6.2746 21.0211 5.5283 21.3061 4.64175C20.5691 5.07748 19.7556 5.39387 18.8887 5.56539C18.1946 4.82487 17.2072 4.36363 16.112 4.36363C14.011 4.36363 12.3075 6.06718 12.3075 8.16706C12.3075 8.46487 12.3411 8.75575 12.406 9.03391C9.24459 8.87512 6.44128 7.36048 4.56507 5.05894C4.2371 5.61984 4.05053 6.27342 4.05053 6.97109C4.05053 8.29106 4.72268 9.45572 5.74249 10.1371C5.11901 10.1163 4.53262 9.94475 4.01925 9.65966V9.70718C4.01925 11.5498 5.3311 13.0876 7.07056 13.4376C6.75186 13.5234 6.4158 13.5709 6.06813 13.5709C5.82246 13.5709 5.58489 13.5465 5.35195 13.5002C5.83634 15.0125 7.24092 16.1123 8.90507 16.1424C7.60365 17.1622 5.96268 17.7683 4.18034 17.7683C3.87325 17.7683 3.57077 17.7498 3.27295 17.7162C4.9568 18.7974 6.95586 19.4278 9.1044 19.4278C16.1028 19.4278 19.9283 13.6311 19.9283 8.60397L19.9155 8.11145C20.663 7.57833 21.3096 6.90851 21.8184 6.14597Z" fill="#F1F5FB"/>
<mask id="mask0" mask-type="alpha" maskUnits="userSpaceOnUse" x="3" y="4" width="19" height="16">
<path fill-rule="evenodd" clip-rule="evenodd" d="M21.8184 6.14597C21.1358 6.44842 20.4034 6.65354 19.6339 6.74512C20.4196 6.2746 21.0211 5.5283 21.3061 4.64175C20.5691 5.07748 19.7556 5.39387 18.8887 5.56539C18.1946 4.82487 17.2072 4.36363 16.112 4.36363C14.011 4.36363 12.3075 6.06718 12.3075 8.16706C12.3075 8.46487 12.3411 8.75575 12.406 9.03391C9.24459 8.87512 6.44128 7.36048 4.56507 5.05894C4.2371 5.61984 4.05053 6.27342 4.05053 6.97109C4.05053 8.29106 4.72268 9.45572 5.74249 10.1371C5.11901 10.1163 4.53262 9.94475 4.01925 9.65966V9.70718C4.01925 11.5498 5.3311 13.0876 7.07056 13.4376C6.75186 13.5234 6.4158 13.5709 6.06813 13.5709C5.82246 13.5709 5.58489 13.5465 5.35195 13.5002C5.83634 15.0125 7.24092 16.1123 8.90507 16.1424C7.60365 17.1622 5.96268 17.7683 4.18034 17.7683C3.87325 17.7683 3.57077 17.7498 3.27295 17.7162C4.9568 18.7974 6.95586 19.4278 9.1044 19.4278C16.1028 19.4278 19.9283 13.6311 19.9283 8.60397L19.9155 8.11145C20.663 7.57833 21.3096 6.90851 21.8184 6.14597Z" fill="white"/>
</mask>
<g mask="url(#mask0)">
</g>
</svg>
